<?xml version="1.0" encoding="UTF-8" standalone="no"?>
<svg
   version="1.1"
   viewBox="0 0 1426.0005 848.62836"
   id="svg28"
   width="1426.0005"
   height="848.62836"
   xmlns:xlink="http://www.w3.org/1999/xlink"
   xmlns="http://www.w3.org/2000/svg"
   xmlns:svg="http://www.w3.org/2000/svg">
  <defs
     id="defs2">
    <rect
       x="139.75658"
       y="232.62532"
       width="1350.9977"
       height="255.40305"
       id="rect84" />
    <linearGradient
       x1="0.5"
       y1="0"
       x2="0.5"
       y2="1"
       id="oooscillate-grad">
      <stop
         stop-color="hsl(0, 75%, 49%)"
         stop-opacity="1"
         offset="0%"
         id="stop1" />
      <stop
         stop-color="hsl(0, 79%, 22%)"
         stop-opacity="1"
         offset="100%"
         id="stop2" />
    </linearGradient>
    <linearGradient
       xlink:href="#oooscillate-grad"
       id="linearGradient29"
       x1="472.53976"
       y1="403.4274"
       x2="472.53976"
       y2="1351.1619"
       gradientTransform="scale(1.5046367,0.66461225)"
       gradientUnits="userSpaceOnUse" />
    <linearGradient
       xlink:href="#oooscillate-grad"
       id="linearGradient30"
       x1="472.53976"
       y1="403.4274"
       x2="472.53976"
       y2="1351.1619"
       gradientTransform="scale(1.5046367,0.66461225)"
       gradientUnits="userSpaceOnUse" />
    <linearGradient
       xlink:href="#oooscillate-grad"
       id="linearGradient31"
       x1="461.61505"
       y1="408.02698"
       x2="461.61505"
       y2="1333.8516"
       gradientTransform="scale(1.5402457,0.64924708)"
       gradientUnits="userSpaceOnUse" />
    <linearGradient
       xlink:href="#oooscillate-grad"
       id="linearGradient32"
       x1="461.61505"
       y1="408.02698"
       x2="461.61505"
       y2="1333.8516"
       gradientTransform="scale(1.5402457,0.64924708)"
       gradientUnits="userSpaceOnUse" />
    <linearGradient
       xlink:href="#oooscillate-grad"
       id="linearGradient33"
       x1="450.48956"
       y1="412.7793"
       x2="450.48956"
       y2="1316.2887"
       gradientTransform="scale(1.5782855,0.63359893)"
       gradientUnits="userSpaceOnUse" />
    <linearGradient
       xlink:href="#oooscillate-grad"
       id="linearGradient34"
       x1="450.48956"
       y1="412.7793"
       x2="450.48956"
       y2="1316.2887"
       gradientTransform="scale(1.5782855,0.63359893)"
       gradientUnits="userSpaceOnUse" />
    <linearGradient
       xlink:href="#oooscillate-grad"
       id="linearGradient35"
       x1="439.3649"
       y1="417.48724"
       x2="439.3649"
       y2="1298.6844"
       gradientTransform="scale(1.6182499,0.61795153)"
       gradientUnits="userSpaceOnUse" />
    <linearGradient
       xlink:href="#oooscillate-grad"
       id="linearGradient36"
       x1="439.3649"
       y1="417.48724"
       x2="439.3649"
       y2="1298.6844"
       gradientTransform="scale(1.6182499,0.61795153)"
       gradientUnits="userSpaceOnUse" />
    <linearGradient
       xlink:href="#oooscillate-grad"
       id="linearGradient37"
       x1="429.57162"
       y1="420.81564"
       x2="429.57162"
       y2="1282.3715"
       gradientTransform="scale(1.6551418,0.60417783)"
       gradientUnits="userSpaceOnUse" />
    <linearGradient
       xlink:href="#oooscillate-grad"
       id="linearGradient38"
       x1="429.57162"
       y1="420.81564"
       x2="429.57162"
       y2="1282.3715"
       gradientTransform="scale(1.6551418,0.60417783)"
       gradientUnits="userSpaceOnUse" />
    <linearGradient
       xlink:href="#oooscillate-grad"
       id="linearGradient39"
       x1="421.14978"
       y1="422.57001"
       x2="421.14978"
       y2="1267.2354"
       gradientTransform="scale(1.6882386,0.59233335)"
       gradientUnits="userSpaceOnUse" />
    <linearGradient
       xlink:href="#oooscillate-grad"
       id="linearGradient40"
       x1="421.14978"
       y1="422.57001"
       x2="421.14978"
       y2="1267.2354"
       gradientTransform="scale(1.6882386,0.59233335)"
       gradientUnits="userSpaceOnUse" />
    <linearGradient
       xlink:href="#oooscillate-grad"
       id="linearGradient41"
       x1="413.91443"
       y1="422.79715"
       x2="413.91443"
       y2="1252.9504"
       gradientTransform="scale(1.7177496,0.58215701)"
       gradientUnits="userSpaceOnUse" />
    <linearGradient
       xlink:href="#oooscillate-grad"
       id="linearGradient42"
       x1="413.91443"
       y1="422.79715"
       x2="413.91443"
       y2="1252.9504"
       gradientTransform="scale(1.7177496,0.58215701)"
       gradientUnits="userSpaceOnUse" />
    <linearGradient
       xlink:href="#oooscillate-grad"
       id="linearGradient43"
       x1="407.71463"
       y1="421.53091"
       x2="407.71463"
       y2="1239.2498"
       gradientTransform="scale(1.7438678,0.57343796)"
       gradientUnits="userSpaceOnUse" />
    <linearGradient
       xlink:href="#oooscillate-grad"
       id="linearGradient44"
       x1="407.71463"
       y1="421.53091"
       x2="407.71463"
       y2="1239.2498"
       gradientTransform="scale(1.7438678,0.57343796)"
       gradientUnits="userSpaceOnUse" />
    <linearGradient
       xlink:href="#oooscillate-grad"
       id="linearGradient45"
       x1="402.43387"
       y1="418.80524"
       x2="402.43387"
       y2="1225.932"
       gradientTransform="scale(1.7667497,0.56601114)"
       gradientUnits="userSpaceOnUse" />
    <linearGradient
       xlink:href="#oooscillate-grad"
       id="linearGradient46"
       x1="402.43387"
       y1="418.80524"
       x2="402.43387"
       y2="1225.932"
       gradientTransform="scale(1.7667497,0.56601114)"
       gradientUnits="userSpaceOnUse" />
    <linearGradient
       xlink:href="#oooscillate-grad"
       id="linearGradient47"
       x1="397.98105"
       y1="414.62143"
       x2="397.98105"
       y2="1212.8187"
       gradientTransform="scale(1.7865151,0.55974896)"
       gradientUnits="userSpaceOnUse" />
    <linearGradient
       xlink:href="#oooscillate-grad"
       id="linearGradient48"
       x1="397.98105"
       y1="414.62143"
       x2="397.98105"
       y2="1212.8187"
       gradientTransform="scale(1.7865151,0.55974896)"
       gradientUnits="userSpaceOnUse" />
    <linearGradient
       xlink:href="#oooscillate-grad"
       id="linearGradient49"
       x1="394.28177"
       y1="408.99701"
       x2="394.28177"
       y2="1199.7743"
       gradientTransform="scale(1.8032782,0.55454561)"
       gradientUnits="userSpaceOnUse" />
    <linearGradient
       xlink:href="#oooscillate-grad"
       id="linearGradient50"
       x1="394.28177"
       y1="408.99701"
       x2="394.28177"
       y2="1199.7743"
       gradientTransform="scale(1.8032782,0.55454561)"
       gradientUnits="userSpaceOnUse" />
    <linearGradient
       xlink:href="#oooscillate-grad"
       id="linearGradient51"
       x1="391.27881"
       y1="401.91266"
       x2="391.27881"
       y2="1186.6663"
       gradientTransform="scale(1.817116,0.55032261)"
       gradientUnits="userSpaceOnUse" />
    <linearGradient
       xlink:href="#oooscillate-grad"
       id="linearGradient52"
       x1="391.27881"
       y1="401.91266"
       x2="391.27881"
       y2="1186.6663"
       gradientTransform="scale(1.817116,0.55032261)"
       gradientUnits="userSpaceOnUse" />
    <linearGradient
       xlink:href="#oooscillate-grad"
       id="linearGradient53"
       x1="388.92767"
       y1="393.35831"
       x2="388.92767"
       y2="1173.3943"
       gradientTransform="scale(1.8281048,0.54701459)"
       gradientUnits="userSpaceOnUse" />
    <linearGradient
       xlink:href="#oooscillate-grad"
       id="linearGradient54"
       x1="388.92767"
       y1="393.35831"
       x2="388.92767"
       y2="1173.3943"
       gradientTransform="scale(1.8281048,0.54701459)"
       gradientUnits="userSpaceOnUse" />
    <linearGradient
       xlink:href="#oooscillate-grad"
       id="linearGradient55"
       x1="387.19086"
       y1="383.31238"
       x2="387.19086"
       y2="1159.8672"
       gradientTransform="scale(1.8363023,0.54457265)"
       gradientUnits="userSpaceOnUse" />
    <linearGradient
       xlink:href="#oooscillate-grad"
       id="linearGradient56"
       x1="387.19086"
       y1="383.31238"
       x2="387.19086"
       y2="1159.8672"
       gradientTransform="scale(1.8363023,0.54457265)"
       gradientUnits="userSpaceOnUse" />
    <linearGradient
       xlink:href="#oooscillate-grad"
       id="linearGradient57"
       x1="386.04593"
       y1="371.74573"
       x2="386.04593"
       y2="1146.0033"
       gradientTransform="scale(1.8417488,0.54296222)"
       gradientUnits="userSpaceOnUse" />
    <linearGradient
       xlink:href="#oooscillate-grad"
       id="linearGradient58"
       x1="386.04593"
       y1="371.74573"
       x2="386.04593"
       y2="1146.0033"
       gradientTransform="scale(1.8417488,0.54296222)"
       gradientUnits="userSpaceOnUse" />
    <linearGradient
       xlink:href="#oooscillate-grad"
       id="linearGradient59"
       x1="385.4772"
       y1="358.60876"
       x2="385.4772"
       y2="1131.7257"
       gradientTransform="scale(1.8444666,0.54216217)"
       gradientUnits="userSpaceOnUse" />
    <linearGradient
       xlink:href="#oooscillate-grad"
       id="linearGradient60"
       x1="385.4772"
       y1="358.60876"
       x2="385.4772"
       y2="1131.7257"
       gradientTransform="scale(1.8444666,0.54216217)"
       gradientUnits="userSpaceOnUse" />
    <linearGradient
       xlink:href="#oooscillate-grad"
       id="linearGradient61"
       x1="385.47742"
       y1="343.84756"
       x2="385.47742"
       y2="1116.9645"
       gradientTransform="scale(1.8444666,0.54216217)"
       gradientUnits="userSpaceOnUse" />
    <linearGradient
       xlink:href="#oooscillate-grad"
       id="linearGradient62"
       x1="385.47742"
       y1="343.84756"
       x2="385.47742"
       y2="1116.9645"
       gradientTransform="scale(1.8444666,0.54216217)"
       gradientUnits="userSpaceOnUse" />
    <linearGradient
       xlink:href="#oooscillate-grad"
       id="linearGradient63"
       x1="386.04633"
       y1="327.39554"
       x2="386.04633"
       y2="1101.6532"
       gradientTransform="scale(1.8417486,0.54296227)"
       gradientUnits="userSpaceOnUse" />
    <linearGradient
       xlink:href="#oooscillate-grad"
       id="linearGradient64"
       x1="386.04633"
       y1="327.39554"
       x2="386.04633"
       y2="1101.6532"
       gradientTransform="scale(1.8417486,0.54296227)"
       gradientUnits="userSpaceOnUse" />
    <linearGradient
       xlink:href="#oooscillate-grad"
       id="linearGradient65"
       x1="387.19092"
       y1="309.1752"
       x2="387.19092"
       y2="1085.7291"
       gradientTransform="scale(1.8363047,0.54457195)"
       gradientUnits="userSpaceOnUse" />
    <linearGradient
       xlink:href="#oooscillate-grad"
       id="linearGradient66"
       x1="387.19092"
       y1="309.1752"
       x2="387.19092"
       y2="1085.7291"
       gradientTransform="scale(1.8363047,0.54457195)"
       gradientUnits="userSpaceOnUse" />
    <linearGradient
       xlink:href="#oooscillate-grad"
       id="linearGradient67"
       x1="388.92755"
       y1="289.08597"
       x2="388.92755"
       y2="1069.123"
       gradientTransform="scale(1.8281025,0.54701527)"
       gradientUnits="userSpaceOnUse" />
    <linearGradient
       xlink:href="#oooscillate-grad"
       id="linearGradient68"
       x1="388.92755"
       y1="289.08597"
       x2="388.92755"
       y2="1069.123"
       gradientTransform="scale(1.8281025,0.54701527)"
       gradientUnits="userSpaceOnUse" />
    <linearGradient
       xlink:href="#oooscillate-grad"
       id="linearGradient69"
       x1="391.28058"
       y1="267.02002"
       x2="391.28058"
       y2="1051.775"
       gradientTransform="scale(1.817113,0.5503235)"
       gradientUnits="userSpaceOnUse" />
    <linearGradient
       xlink:href="#oooscillate-grad"
       id="linearGradient70"
       x1="391.28058"
       y1="267.02002"
       x2="391.28058"
       y2="1051.775"
       gradientTransform="scale(1.817113,0.5503235)"
       gradientUnits="userSpaceOnUse" />
    <linearGradient
       xlink:href="#oooscillate-grad"
       id="linearGradient71"
       x1="394.28177"
       y1="242.839"
       x2="394.28177"
       y2="1033.6157"
       gradientTransform="scale(1.8032795,0.55454519)"
       gradientUnits="userSpaceOnUse" />
    <linearGradient
       xlink:href="#oooscillate-grad"
       id="linearGradient72"
       x1="394.28177"
       y1="242.839"
       x2="394.28177"
       y2="1033.6157"
       gradientTransform="scale(1.8032795,0.55454519)"
       gradientUnits="userSpaceOnUse" />
    <linearGradient
       xlink:href="#oooscillate-grad"
       id="linearGradient73"
       x1="397.98233"
       y1="216.38075"
       x2="397.98233"
       y2="1014.5787"
       gradientTransform="scale(1.7865135,0.55974948)"
       gradientUnits="userSpaceOnUse" />
    <linearGradient
       xlink:href="#oooscillate-grad"
       id="linearGradient74"
       x1="397.98233"
       y1="216.38075"
       x2="397.98233"
       y2="1014.5787"
       gradientTransform="scale(1.7865135,0.55974948)"
       gradientUnits="userSpaceOnUse" />
    <linearGradient
       xlink:href="#oooscillate-grad"
       id="linearGradient75"
       x1="402.43536"
       y1="187.45235"
       x2="402.43536"
       y2="994.58179"
       gradientTransform="scale(1.7667437,0.56601307)"
       gradientUnits="userSpaceOnUse" />
    <linearGradient
       xlink:href="#oooscillate-grad"
       id="linearGradient76"
       x1="402.43536"
       y1="187.45235"
       x2="402.43536"
       y2="994.58179"
       gradientTransform="scale(1.7667437,0.56601307)"
       gradientUnits="userSpaceOnUse" />
    <linearGradient
       xlink:href="#oooscillate-grad"
       id="linearGradient77"
       x1="407.71375"
       y1="155.83359"
       x2="407.71375"
       y2="973.55164"
       gradientTransform="scale(1.7438695,0.57343741)"
       gradientUnits="userSpaceOnUse" />
    <linearGradient
       xlink:href="#oooscillate-grad"
       id="linearGradient78"
       x1="407.71375"
       y1="155.83359"
       x2="407.71375"
       y2="973.55164"
       gradientTransform="scale(1.7438695,0.57343741)"
       gradientUnits="userSpaceOnUse" />
    <linearGradient
       xlink:href="#oooscillate-grad"
       id="linearGradient79"
       x1="413.91202"
       y1="121.24203"
       x2="413.91202"
       y2="951.39374"
       gradientTransform="scale(1.7177531,0.58215584)"
       gradientUnits="userSpaceOnUse" />
    <linearGradient
       xlink:href="#oooscillate-grad"
       id="linearGradient80"
       x1="413.91202"
       y1="121.24203"
       x2="413.91202"
       y2="951.39374"
       gradientTransform="scale(1.7177531,0.58215584)"
       gradientUnits="userSpaceOnUse" />
    <linearGradient
       xlink:href="#oooscillate-grad"
       id="linearGradient81"
       x1="421.14716"
       y1="83.34922"
       x2="421.14716"
       y2="928.01233"
       gradientTransform="scale(1.6882429,0.59233182)"
       gradientUnits="userSpaceOnUse" />
    <linearGradient
       xlink:href="#oooscillate-grad"
       id="linearGradient82"
       x1="421.14716"
       y1="83.34922"
       x2="421.14716"
       y2="928.01233"
       gradientTransform="scale(1.6882429,0.59233182)"
       gradientUnits="userSpaceOnUse" />
    <linearGradient
       xlink:href="#oooscillate-grad"
       id="linearGradient83"
       x1="548.4903"
       y1="63.998184"
       x2="548.4903"
       y2="1164.0638"
       gradientTransform="scale(1.2962867,0.77143428)"
       gradientUnits="userSpaceOnUse" />
  </defs>
  <rect
     style="fill:#0d0d0d;fill-opacity:1;stroke-width:4.9285;paint-order:markers stroke fill"
     id="rect83"
     width="1426.0005"
     height="848.62836"
     x="0"
     y="0"
     ry="0.73767775" />
  <g
     stroke-width="2"
     stroke="url(#oooscillate-grad)"
     fill="none"
     stroke-linecap="round"
     id="g28"
     style="stroke:url(#linearGradient83)"
     transform="translate(1.9995106,-49.370395)">
    <path
       style="fill:url(#linearGradient29);stroke:url(#linearGradient30)"
       d="M 488.81836,269.12305 C 444.1555,269.05054 399.49384,284.58997 354.92773,315.67969 236.08478,398.5856 117.59823,591.89352 -0.93164063,895.63672 a 1,1 0 0 0 0.56835938,1.29492 1,1 0 0 0 1.29492188,-0.56836 C 119.40177,592.77315 237.91522,399.74773 356.07227,317.32031 c 59.07852,-41.21371 117.98599,-54.82196 176.94921,-40.97265 58.96323,13.84931 118.05434,55.23597 177.21875,124.30273 237.08623,276.76733 474.24687,442.25808 711.53707,496.32422 a 1,1 0 0 0 1.1973,-0.75195 1,1 0 0 0 -0.7519,-1.19727 C 1185.5129,841.09153 948.67354,675.91561 711.75977,399.34961 652.42418,330.08303 593.01529,288.38637 533.47852,274.40234 c -14.8842,-3.496 -29.77254,-5.25513 -44.66016,-5.27929 z"
       id="path2" />
    <path
       style="opacity:0.96;fill:url(#linearGradient31);stroke:url(#linearGradient32)"
       d="m 477.68164,265.98242 c -40.93693,1.10935 -81.87166,15.01643 -122.72852,41.67969 C 236.09683,385.22796 117.60424,570.54594 -0.92773438,863.625 A 1,1 0 0 0 -0.375,864.92773 1,1 0 0 0 0.92773438,864.375 C 119.39576,571.45406 237.90317,386.4387 356.04687,309.33789 415.11873,270.78748 474.0255,259.16466 533,274.34375 c 58.9745,15.17909 118.07375,57.23747 177.24023,126.30664 237.0945,276.77697 474.28947,431.62719 711.62307,464.33984 a 1,1 0 0 0 1.1269,-0.85351 1,1 0 0 0 -0.8535,-1.12695 C 1185.4703,830.38908 948.66527,675.90597 711.75977,399.34961 652.42625,330.08544 593.0255,287.72716 533.5,272.40625 c -18.60172,-4.78778 -37.21066,-6.92808 -55.81836,-6.42383 z"
       id="path3" />
    <path
       style="opacity:0.93;fill:url(#linearGradient33);stroke:url(#linearGradient34)"
       d="m 477.70898,262.53711 c -40.93304,-0.0996 -81.86719,12.28029 -122.72851,37.10742 -118.8693,72.22439 -237.36805,249.55371 -355.902345,531.96875 a 1,1 0 0 0 0.53515625,1.30859 1,1 0 0 0 1.30859375,-0.53515 C 119.38758,550.1351 237.88883,373.13108 356.01953,301.35547 c 59.06535,-35.88781 117.97512,-45.52697 176.96094,-29.01758 58.98581,16.50939 118.09122,59.24092 177.25976,128.3125 237.10276,276.78662 474.34097,420.99654 711.71287,432.34766 a 1,1 0 0 0 1.0449,-0.95118 1,1 0 0 0 -0.9511,-1.04492 C 1185.4188,819.6864 948.65701,675.89633 711.75977,399.34961 652.42831,330.08786 593.03372,287.06938 533.51953,270.41211 c -18.59818,-5.2054 -37.20462,-7.82972 -55.81055,-7.875 z"
       id="path4" />
    <path
       style="opacity:0.89;fill:url(#linearGradient35);stroke:url(#linearGradient36)"
       d="m 466.57617,259.03711 c -37.2082,0.82061 -74.41586,11.69135 -111.5664,32.5918 -118.88176,66.88143 -237.38893,236.21954 -355.92578563,507.9707 a 1,1 0 0 0 0.515625,1.31641 1,1 0 0 0 1.31640626,-0.51563 C 119.37916,528.81822 237.87199,359.82299 355.99023,293.37109 415.04936,260.14514 473.9638,252.49183 532.96094,270.33203 591.95808,288.17223 651.06962,331.5764 710.24023,400.65039 947.35125,677.44665 1184.6409,811.01697 1422.043,801 A 1,1 0 0 0 1423,799.95703 1,1 0 0 0 1421.957,799 C 1185.3591,808.98303 948.64875,675.88668 711.75977,399.34961 652.43038,330.09027 593.04192,286.4111 533.53906,268.41797 c -22.31357,-6.74742 -44.63796,-9.87322 -66.96289,-9.38086 z"
       id="path5" />
    <path
       style="opacity:0.86;fill:url(#linearGradient37);stroke:url(#linearGradient38)"
       d="m 466.60547,255.25586 c -37.20431,-0.33063 -74.41026,9.12517 -111.56445,28.35547 -118.89341,61.53695 -237.41149,222.8872 -355.95117625,483.97461 a 1,1 0 0 0 0.49609375,1.32422 1,1 0 0 0 1.32421875,-0.4961 C 119.37047,507.50147 237.85239,346.51838 355.95898,285.38867 c 59.0533,-30.56485 117.97401,-36.23401 176.98243,-17.0625 59.00841,19.17151 118.12615,63.24782 177.29882,132.32422 237.11928,276.80591 474.46857,399.73093 711.89067,368.3418 a 1,1 0 0 0 0.8613,-1.12305 1,1 0 0 0 -1.1231,-0.86133 C 1185.2912,798.28534 948.64049,675.87704 711.75977,399.34961 652.43244,330.09268 593.05018,285.75232 533.55859,266.42383 511.24925,259.17564 488.92805,255.45424 466.60547,255.25586 Z"
       id="path6" />
    <path
       style="opacity:0.82;fill:url(#linearGradient39);stroke:url(#linearGradient40)"
       d="m 455.47461,251.31641 c -33.48031,0.3809 -66.96059,8.4756 -100.40234,24.27929 C 236.16825,331.78663 117.63852,485.14849 -0.90429688,735.57227 a 1,1 0 0 0 0.4765625,1.33203 1,1 0 0 0 1.33203126,-0.47657 C 119.36148,486.18485 237.83175,333.21337 355.92773,277.4043 c 59.048,-27.90454 117.97453,-31.58729 176.99414,-11.08399 59.01962,20.5033 118.14362,65.25127 177.31836,134.33008 237.12754,276.81555 474.54567,389.08859 711.97657,336.32617 a 1,1 0 0 0 0.7598,-1.19336 1,1 0 0 0 -1.1934,-0.75976 C 1185.2141,787.59435 948.63223,675.86739 711.75977,399.34961 652.43451,330.09509 593.05851,285.09306 533.57812,264.42969 507.55546,255.38946 481.51485,251.02015 455.47461,251.31641 Z"
       id="path7" />
    <path
       style="opacity:0.79;fill:url(#linearGradient41);stroke:url(#linearGradient42)"
       d="m 455.50586,247.18359 c -33.47637,-0.70202 -66.95408,6.09679 -100.39844,20.39649 C 236.19414,318.42345 117.6498,463.79635 -0.89648438,703.55664 a 1,1 0 0 0 0.453125,1.33984 1,1 0 0 0 1.33984376,-0.45312 C 119.3502,464.87031 237.80586,319.90988 355.89258,269.41992 c 59.04336,-25.24498 117.97907,-26.94297 177.00976,-5.10742 59.0307,21.83555 118.16109,67.25667 177.33789,136.33789 118.5679,138.4126 237.17549,233.0209 355.86717,283.76953 118.6917,50.74863 237.4769,57.60213 356.1914,20.53516 a 1,1 0 0 0 0.6563,-1.25391 1,1 0 0 0 -1.2539,-0.65625 C 1303.4157,739.97795 1185.2009,733.16478 1066.8926,682.58008 948.58428,631.99538 830.19187,537.60368 711.75977,399.34961 652.43657,330.0975 593.06696,284.43529 533.59766,262.4375 c -26.01783,-9.62403 -52.05462,-14.70789 -78.0918,-15.25391 z"
       id="path8" />
    <path
       style="opacity:0.75;fill:url(#linearGradient43);stroke:url(#linearGradient44)"
       d="m 444.37891,242.72461 c -29.7533,-0.14645 -59.5061,5.4682 -89.23633,16.8418 C 236.22164,305.06077 117.66148,442.4441 -0.88867188,671.54102 a 1,1 0 0 0 0.4296875,1.34765 1,1 0 0 0 1.34765626,-0.42969 C 119.33852,443.5559 237.77836,306.60589 355.85742,261.43359 c 59.03953,-22.58615 117.98573,-22.29518 177.02735,0.87305 59.04161,23.16823 118.17659,69.26012 177.35546,138.34375 118.57203,138.41742 237.18921,230.36833 355.90237,275.7832 118.7131,45.41488 237.5215,44.24484 356.2304,-3.50586 a 1,1 0 0 0 0.5547,-1.30078 1,1 0 0 0 -1.3007,-0.55468 C 1303.3359,718.6549 1185.1443,719.8182 1066.8574,674.56641 948.57056,629.31461 830.18774,537.59886 711.75977,399.34961 652.43864,330.09991 593.07362,283.77513 533.61523,260.44336 503.88604,248.77747 474.1322,242.87106 444.37891,242.72461 Z"
       id="path9" />
    <path
       style="opacity:0.72;fill:url(#linearGradient45);stroke:url(#linearGradient46)"
       d="m 433.25586,238.05664 c -26.03085,0.21659 -52.06096,4.71459 -78.07617,13.49609 C 236.25301,291.69676 117.67554,421.08978 -0.87890625,639.52344 a 1,1 0 0 0 0.40234375,1.35547 1,1 0 0 0 1.35546875,-0.40235 C 119.32446,422.24355 237.74699,293.30324 355.82031,253.44727 c 59.03666,-19.92799 117.99452,-17.64977 177.04688,6.85156 59.05235,24.50133 118.19211,71.26551 177.37304,140.35156 118.57617,138.42224 237.20419,227.71746 355.93947,267.79688 118.7353,40.07941 237.5619,30.88088 356.2617,-27.55079 a 1,1 0 0 0 0.4551,-1.33789 1,1 0 0 0 -1.3379,-0.45507 c -118.3002,58.23499 -236.4736,67.3698 -354.7383,27.44921 C 948.55558,626.63215 830.1836,537.59403 711.75977,399.34961 652.4407,330.10232 593.08046,283.11651 533.63281,258.45117 500.19351,244.57692 466.7241,237.77816 433.25586,238.05664 Z"
       id="path10" />
    <path
       style="opacity:0.68;fill:url(#linearGradient47);stroke:url(#linearGradient48)"
       d="m 422.13672,233.12695 c -22.30922,0.41854 -44.61855,3.89047 -66.91797,10.41407 C 236.28851,278.33355 117.6901,399.73342 -0.86914063,607.50391 a 1,1 0 0 0 0.37304688,1.36523 1,1 0 0 0 1.36523438,-0.37305 C 119.3099,400.93325 237.71149,279.99979 355.78125,245.45898 c 59.03488,-17.2704 118.00548,-13.00278 177.06836,12.83204 59.06288,25.83481 118.20762,73.27091 177.39062,142.35937 118.5803,138.42706 237.22071,225.06651 355.97857,259.80859 118.7578,34.74209 237.5969,17.51388 356.2851,-51.5957 a 1,1 0 0 0 0.3594,-1.36719 1,1 0 0 0 -1.3672,-0.35937 c -118.3118,68.89042 -236.4727,85.99554 -354.7148,51.4043 C 948.53906,623.94977 830.17947,537.58921 711.75977,399.34961 652.44277,330.10473 593.08751,282.4575 533.65039,256.45898 496.50219,240.20991 459.31876,232.4294 422.13672,233.12695 Z"
       id="path11" />
    <path
       style="opacity:0.65;fill:url(#linearGradient49);stroke:url(#linearGradient50)"
       d="m 422.1582,227.84766 c -22.29805,-0.39805 -44.5988,2.16161 -66.89843,7.68164 -118.93139,29.44011 -237.5526,142.84769 -356.11719188,339.95507 a 1,1 0 0 0 0.34179688,1.37305 1,1 0 0 0 1.37304688,-0.3418 C 119.29283,379.62301 237.67162,266.69725 355.74023,237.4707 c 118.06862,-29.22655 236.12987,24.99795 354.5,163.17969 118.58443,138.43189 237.23909,222.41756 356.01957,251.82031 118.7804,29.40276 237.6235,4.14386 356.2988,-75.64062 a 1,1 0 0 0 0.2715,-1.38867 1,1 0 0 0 -1.3887,-0.27149 C 1303.1167,654.71877 1184.9598,679.79321 1066.7402,650.5293 948.52068,621.26538 830.17534,537.58439 711.75977,399.34961 615.373,286.8306 518.7831,229.5725 422.1582,227.84766 Z"
       id="path12" />
    <path
       style="opacity:0.61;fill:url(#linearGradient51);stroke:url(#linearGradient52)"
       d="m 399.89844,222.30859 c -14.86489,0.46421 -29.73142,2.20006 -44.59766,5.21094 C 236.37087,251.6066 117.72682,357.0186 -0.84375,543.46289 a 1,1 0 0 0 0.30664063,1.38086 A 1,1 0 0 0 0.84375,544.53711 C 119.27318,358.31474 237.62913,253.3934 355.69922,229.48047 c 118.07009,-23.91293 236.16674,32.98336 354.54101,171.16992 118.58856,138.43671 237.25776,219.76875 356.06057,243.83008 118.8028,24.06132 237.6429,-9.2289 356.3047,-99.68555 a 1,1 0 0 0 0.1894,-1.40039 1,1 0 0 0 -1.4004,-0.18945 C 1303.0563,633.4151 1184.8964,666.45821 1066.6992,642.51953 948.50201,618.58086 830.17121,537.57957 711.75977,399.34961 607.96225,278.17952 503.95267,219.05913 399.89844,222.30859 Z"
       id="path13" />
    <path
       style="opacity:0.58;fill:url(#linearGradient53);stroke:url(#linearGradient54)"
       d="M 399.9375,216.18164 C 385.07397,216.06082 370.20946,217.17 355.34375,219.51172 236.41806,238.24544 117.74911,335.66024 -0.828125,511.44141 a 1,1 0 0 0 0.26953125,1.38671 1,1 0 0 0 1.38671875,-0.26953 C 119.25089,337.00643 237.58194,240.08789 355.65625,221.48828 473.73056,202.88867 591.86183,262.45901 710.24023,400.65039 828.83292,539.09192 947.51929,617.7705 1066.3438,636.48828 1185.1682,655.20606 1304,613.88819 1422.6484,512.76172 a 1,1 0 0 0 0.1133,-1.41016 1,1 0 0 0 -1.4101,-0.11328 C 1303,612.11181 1184.8318,653.12727 1066.6563,634.51172 948.48071,615.89616 830.16708,537.57475 711.75977,399.34961 607.96587,278.18373 503.98223,217.02742 399.9375,216.18164 Z"
       id="path14" />
    <path
       style="opacity:0.54;fill:url(#linearGradient55);stroke:url(#linearGradient56)"
       d="m 377.68359,209.88867 c -7.43173,0.24159 -14.8625,0.78091 -22.29492,1.61719 C 236.47002,224.8863 117.77218,314.2981 -0.8125,479.41602 A 1,1 0 0 0 -0.58398437,480.8125 1,1 0 0 0 0.8125,480.58398 C 119.22782,315.7019 237.52998,226.78037 355.61133,213.49414 c 118.08134,-13.28623 236.24637,48.96005 354.6289,187.15625 118.59682,138.44635 237.3034,214.47159 356.14847,227.84375 118.845,13.37216 237.6613,-35.97123 356.2968,-147.76562 a 1,1 0 0 0 0.043,-1.41407 1,1 0 0 0 -1.414,-0.043 C 1302.95,590.81043 1184.7663,639.80037 1066.6113,626.50586 948.45637,613.21135 830.16295,537.56992 711.75977,399.34961 600.55589,269.53355 489.15955,206.26489 377.68359,209.88867 Z"
       id="path15" />
    <path
       style="opacity:0.51;fill:url(#linearGradient57);stroke:url(#linearGradient58)"
       d="m 377.72656,202.85742 c -7.43096,-0.0719 -14.86116,0.14281 -22.29297,0.64453 -118.90882,8.0276 -237.63358,89.43425 -356.22655875,243.88867 a 1,1 0 0 0 0.18359375,1.40235 1,1 0 0 0 1.40234375,-0.1836 C 119.19999,294.39713 237.47523,213.47045 355.56641,205.49805 c 118.09117,-7.9724 236.28716,56.95131 354.67382,195.15234 118.60095,138.45118 237.32924,211.82307 356.19337,219.84766 118.8641,8.02458 237.6617,-49.34193 356.2852,-171.80274 a 1,1 0 0 0 -0.024,-1.41406 1,1 0 0 0 -1.414,0.0234 C 1302.9047,569.51055 1184.7023,626.47737 1066.5664,618.50195 948.43053,610.52654 830.15882,537.5651 711.75977,399.34961 600.55976,269.53807 489.19106,203.93602 377.72656,202.85742 Z"
       id="path16" />
    <path
       style="opacity:0.47;fill:url(#linearGradient59);stroke:url(#linearGradient60)"
       d="M 355.47656,195.5 C 236.58024,198.17559 117.8307,271.57273 -0.77148437,415.36328 a 1,1 0 0 0 0.13476562,1.4082 1,1 0 0 0 1.40820312,-0.13476 C 119.1693,273.09393 237.41976,200.15775 355.52344,197.5 c 118.10367,-2.65775 236.326,64.94454 354.71679,203.15039 118.60508,138.456 237.355,209.17436 356.23637,211.84961 118.8813,2.67525 237.6571,-62.70789 356.2695,-195.83398 a 1,1 0 0 0 -0.08,-1.41211 1,1 0 0 0 -1.4121,0.0801 C 1302.8663,548.20789 1184.6421,613.15809 1066.5234,610.5 948.40477,607.84191 830.15469,537.56028 711.75977,399.34961 593.15056,260.88879 474.37289,192.82441 355.47656,195.5 Z"
       id="path17" />
    <path
       style="opacity:0.44;fill:url(#linearGradient61);stroke:url(#linearGradient62)"
       d="M 355.52344,187.5 C 236.64211,184.82475 117.86625,250.20789 -0.74609375,383.33398 a 1,1 0 0 0 0.0800781,1.41211 1,1 0 0 0 1.41210937,-0.0801 C 119.13375,251.79211 237.35789,186.84191 355.47656,189.5 c 118.11867,2.65809 236.36875,72.93972 354.76367,211.15039 118.60921,138.46082 237.38688,206.5252 356.28317,203.84961 118.8964,-2.67559 237.6459,-76.07273 356.2481,-219.86328 a 1,1 0 0 0 -0.1348,-1.4082 1,1 0 0 0 -1.4082,0.13476 C 1302.8307,526.90607 1184.5802,599.84225 1066.4766,602.5 948.37289,605.15775 830.15056,537.55546 711.75977,399.34961 593.15469,260.89361 474.40477,190.17525 355.52344,187.5 Z"
       id="path18" />
    <path
       style="opacity:0.4;fill:url(#linearGradient63);stroke:url(#linearGradient64)"
       d="m 333.28125,178.76367 c -111.42698,0.1388 -222.79049,57.73401 -334,172.54102 a 1,1 0 0 0 0.0234375,1.41406 1,1 0 0 0 1.4140625,-0.0234 c 118.37652,-122.2059 236.57897,-179.17272 354.71484,-171.1973 118.13588,7.97541 236.40759,80.93685 354.80664,219.15234 118.61334,138.46564 237.41735,203.87526 356.32617,195.84766 118.9088,-8.0276 237.6336,-89.43425 356.2266,-243.88868 a 1,1 0 0 0 -0.1836,-1.40234 1,1 0 0 0 -1.4024,0.18359 C 1302.8,505.60287 1184.5248,586.52955 1066.4336,594.50195 948.34242,602.47435 830.14643,537.55064 711.75977,399.34961 593.15882,260.89843 474.43053,187.52654 355.56641,179.50195 c -7.42901,-0.50153 -14.85669,-0.74753 -22.28516,-0.73828 z"
       id="path19" />
    <path
       style="opacity:0.37;fill:url(#linearGradient65);stroke:url(#linearGradient66)"
       d="M 311.04687,169.43164 C 207.06569,171.44647 103.12055,221.45139 -0.68554687,319.27148 a 1,1 0 0 0 -0.0429687,1.41407 1,1 0 0 0 1.41406249,0.043 C 119.05001,209.18957 237.23372,160.19963 355.38867,173.49414 473.54363,186.78865 591.83705,262.43008 710.24023,400.65039 828.8577,539.12085 947.69267,601.87458 1066.6113,588.49414 1185.53,575.1137 1304.2278,485.7019 1422.8125,320.58398 a 1,1 0 0 0 -0.2285,-1.39648 1,1 0 0 0 -1.3965,0.22852 C 1302.7722,484.2981 1184.47,573.21963 1066.3887,586.50586 948.30733,599.79209 830.1423,537.54581 711.75977,399.34961 593.16295,260.90326 474.45637,184.87802 355.61133,171.50586 c -14.85563,-1.67152 -29.71,-2.36205 -44.56446,-2.07422 z"
       id="path20" />
    <path
       style="opacity:0.33;fill:url(#linearGradient67);stroke:url(#linearGradient68)"
       d="M 311.0957,159.30664 C 207.12537,156.05831 103.1689,198.75262 -0.6484375,287.23828 a 1,1 0 0 0 -0.11328125,1.41016 1,1 0 0 0 1.41015625,0.11328 C 119.00005,187.88819 237.16821,146.87273 355.34375,165.48828 c 118.17554,18.61556 236.48917,96.93697 354.89648,235.16211 118.6216,138.47529 237.49033,198.57161 356.41607,179.83789 118.9256,-18.73372 237.5946,-116.14852 356.1718,-291.92969 a 1,1 0 0 0 -0.2695,-1.38672 1,1 0 0 0 -1.3867,0.26954 C 1302.7491,462.99357 1184.4181,559.91211 1066.3438,578.51172 948.26944,597.11133 830.13817,537.54099 711.75977,399.34961 593.16708,260.90808 474.48071,182.2295 355.65625,163.51172 340.80319,161.172 325.94861,159.77069 311.0957,159.30664 Z"
       id="path21" />
    <path
       style="opacity:0.3;fill:url(#linearGradient69);stroke:url(#linearGradient70)"
       d="M 288.86914,148.0332 C 192.33664,145.95221 95.807217,181.70905 -0.60546875,255.20508 a 1,1 0 0 0 -0.18945312,1.40039 1,1 0 0 0 1.40039062,0.18945 C 118.9437,166.5849 237.10357,133.54179 355.30078,157.48047 473.49799,181.41914 591.82879,262.42043 710.24023,400.65039 828.86596,539.1305 947.76931,596.56754 1066.6992,572.48047 1185.6291,548.3934 1304.2732,442.9814 1422.8438,256.53711 a 1,1 0 0 0 -0.3067,-1.38086 1,1 0 0 0 -1.3808,0.30664 C 1302.7268,441.68526 1184.3709,546.6066 1066.3008,570.51953 948.23069,594.43246 830.13404,537.53617 711.75977,399.34961 593.17121,260.9129 474.50201,179.58086 355.69922,155.51953 c -22.27552,-4.5115 -44.55335,-7.0061 -66.83008,-7.48633 z"
       id="path22" />
    <path
       style="opacity:0.26;fill:url(#linearGradient71);stroke:url(#linearGradient72)"
       d="M 266.64648,135.72461 C 177.54862,134.16434 88.44784,163.33156 -0.55859375,223.16992 a 1,1 0 0 0 -0.27148438,1.38867 1,1 0 0 0 1.38867188,0.27149 C 118.88335,145.28123 237.04021,120.20679 355.25977,149.4707 473.47932,178.73462 591.82466,262.41561 710.24023,400.65039 828.8701,539.13532 947.80885,593.91082 1066.7402,564.4707 1185.6716,535.03059 1304.2928,421.62301 1422.8574,224.51562 a 1,1 0 0 0 -0.3418,-1.37304 1,1 0 0 0 -1.373,0.34179 C 1302.7072,420.37699 1184.3284,533.30275 1066.2598,562.5293 948.19115,591.75585 830.1299,537.53135 711.75977,399.34961 593.17534,260.91772 474.52068,176.93205 355.74023,147.5293 326.04512,140.17861 296.34577,136.2447 266.64648,135.72461 Z"
       id="path23" />
    <path
       style="opacity:0.23;fill:url(#linearGradient73);stroke:url(#linearGradient74)"
       d="m 244.42969,122.19336 c -81.665,-1.5602 -163.335463,21.43052 -244.93359625,68.94336 a 1,1 0 0 0 -0.359375,1.36719 1,1 0 0 0 1.3671875,0.35937 C 118.81571,123.97286 236.97656,106.86774 355.21875,141.45898 c 118.24219,34.59125 236.60178,120.95181 355.02148,259.19141 59.317,69.24488 118.67226,116.89211 178.10938,142.89063 59.43712,25.99851 118.96649,30.31423 178.43169,12.91796 118.9302,-34.79253 237.5286,-156.1924 356.0878,-363.96289 a 1,1 0 0 0 -0.373,-1.36523 1,1 0 0 0 -1.3652,0.37305 C 1302.6901,399.06675 1184.2885,520.00021 1066.2188,554.54102 1007.1839,571.81142 948.21327,567.5438 889.15039,541.70898 830.08751,515.87417 770.94277,468.43807 711.75977,399.34961 593.17947,260.92255 474.53906,174.2831 355.78125,139.54102 318.66943,128.68411 281.55014,122.90254 244.42969,122.19336 Z"
       id="path24" />
    <path
       style="opacity:0.19;fill:url(#linearGradient75);stroke:url(#linearGradient76)"
       d="M 199.94531,107.24023 C 133.1353,108.94459 66.327209,126.2357 -0.44140625,159.10352 a 1,1 0 0 0 -0.45507813,1.33789 1,1 0 0 0 1.33789063,0.45507 C 118.74165,102.66149 236.91496,93.526682 355.17969,133.44727 c 118.26473,39.92058 236.63671,128.9587 355.06054,267.20312 59.31907,69.24729 118.67931,116.2331 178.12696,140.89844 59.44764,24.66534 118.98981,26.97045 178.45311,6.89844 118.9267,-40.14403 237.5042,-169.53705 356.0586,-387.97071 a 1,1 0 0 0 -0.4023,-1.35547 1,1 0 0 0 -1.3555,0.40235 C 1302.6755,377.75645 1184.253,506.69676 1066.1797,546.55273 1007.143,566.48072 948.18517,564.2025 889.13281,539.70117 830.08046,515.19984 770.9407,468.43566 711.75977,399.34961 593.1836,260.92737 474.55558,171.63215 355.82031,131.55273 303.87363,114.01799 251.90865,105.91462 199.94531,107.24023 Z"
       id="path25" />
    <path
       style="opacity:0.16;fill:url(#linearGradient77);stroke:url(#linearGradient78)"
       d="M 177.74023,90.382812 C 118.36037,90.967392 58.981404,103.19692 -0.37304688,127.07227 a 1,1 0 0 0 -0.5546875,1.30078 1,1 0 0 0 1.30078126,0.55468 C 118.66414,81.345099 236.85572,80.181799 355.14258,125.43359 c 118.28686,45.2518 236.66968,136.96755 355.09765,275.2168 59.32113,69.2497 118.68615,115.57448 178.14454,138.90625 59.45838,23.33177 119.01223,23.62414 178.47263,0.87695 118.921,-45.49436 237.4811,-182.87769 356.0313,-411.97461 a 1,1 0 0 0 -0.4297,-1.34765 1,1 0 0 0 -1.3477,0.42969 C 1302.6615,356.4441 1184.2216,493.39411 1066.1426,538.56641 1007.103,561.15256 948.15685,560.86159 889.11523,537.69336 830.07362,514.52513 770.93864,468.43324 711.75977,399.34961 593.18774,260.93219 474.57056,168.98128 355.85742,123.56641 296.50085,100.85897 237.1201,89.798233 177.74023,90.382812 Z"
       id="path26" />
    <path
       style="opacity:0.12;fill:url(#linearGradient79);stroke:url(#linearGradient80)"
       d="M 155.54102,71.613281 C 103.59015,71.018917 51.638758,78.828123 -0.29882813,95.044922 a 1,1 0 0 0 -0.65625,1.253906 1,1 0 0 0 1.25390626,0.65625 C 118.58434,60.022048 236.79912,66.835219 355.10742,117.41992 c 118.3083,50.5847 236.70071,144.9764 355.13281,283.23047 59.3232,69.25211 118.69281,114.91432 178.16211,136.91211 59.46931,21.99779 119.03356,20.27911 178.49026,-5.14258 118.9133,-50.84337 237.4576,-196.21627 356.0039,-435.976561 a 1,1 0 0 0 -0.4531,-1.339843 1,1 0 0 0 -1.3399,0.453125 C 1302.6498,335.12969 1184.1941,480.09012 1066.1074,530.58008 1007.0641,555.82506 948.12835,557.52305 889.09766,535.6875 830.06696,513.85195 770.93657,468.43083 711.75977,399.34961 593.19187,260.93701 474.58428,166.32871 355.89258,115.58008 289.1285,87.033973 222.33498,72.377464 155.54102,71.613281 Z"
       id="path27" />
    <path
       style="opacity:0.09;fill:url(#linearGradient81);stroke:url(#linearGradient82)"
       d="M 111.07617,50.376953 C 73.979286,50.564612 36.88178,54.779309 -0.21679688,63.023437 a 1,1 0 0 0 -0.75976562,1.19336 1,1 0 0 0 1.19335938,0.759765 C 236.78591,12.405649 473.36777,124.13261 710.24023,400.65039 c 59.32526,69.25452 118.70126,114.25655 178.18164,134.91992 59.48039,20.66337 119.05383,16.92945 178.50583,-11.16601 118.904,-56.19093 237.4338,-209.55279 355.9766,-459.976566 a 1,1 0 0 0 -0.4766,-1.332031 1,1 0 0 0 -1.332,0.476563 C 1302.6385,313.81515 1184.1683,466.78663 1066.0723,522.5957 1007.0243,550.50024 948.09774,554.18299 889.07812,533.67969 830.05851,513.17639 770.93451,468.42842 711.75977,399.34961 511.68341,165.78649 311.39936,49.363594 111.07617,50.376953 Z"
       id="path28" />
  </g>
  <text
     xml:space="preserve"
     id="text83"
     style="font-style:italic;font-variant:normal;font-weight:normal;font-stretch:normal;font-size:165.333px;line-height:1.1;font-family:Faustina;-inkscape-font-specification:'Faustina Italic';text-align:start;letter-spacing:1.28px;writing-mode:lr-tb;direction:ltr;white-space:pre;shape-inside:url(#rect84);display:inline;fill:#ffffff;fill-opacity:1;stroke-width:4.9285;paint-order:markers stroke fill"
     transform="translate(22.56008,104.01676)"><tspan
       x="139.75586"
       y="377.75063"
       id="tspan2">JamiePacker.com</tspan></text>
</svg>
