<?xml version="1.0" encoding="utf-8" standalone="no"?>
<!DOCTYPE svg PUBLIC "-//W3C//DTD SVG 1.1//EN"
  "http://www.w3.org/Graphics/SVG/1.1/DTD/svg11.dtd">
<svg xmlns:xlink="http://www.w3.org/1999/xlink" width="713.07375pt" height="425.575625pt" viewBox="0 0 713.07375 425.575625" xmlns="http://www.w3.org/2000/svg" version="1.1">
 <metadata>
  <rdf:RDF xmlns:dc="http://purl.org/dc/elements/1.1/" xmlns:cc="http://creativecommons.org/ns#" xmlns:rdf="http://www.w3.org/1999/02/22-rdf-syntax-ns#">
   <cc:Work>
    <dc:type rdf:resource="http://purl.org/dc/dcmitype/StillImage"/>
    <dc:date>2026-01-21T14:43:47.033238</dc:date>
    <dc:format>image/svg+xml</dc:format>
    <dc:creator>
     <cc:Agent>
      <dc:title>Matplotlib v3.10.8, https://matplotlib.org/</dc:title>
     </cc:Agent>
    </dc:creator>
   </cc:Work>
  </rdf:RDF>
 </metadata>
 <defs>
  <style type="text/css">*{stroke-linejoin: round; stroke-linecap: butt}</style>
 </defs>
 <g id="figure_1">
  <g id="patch_1">
   <path d="M 0 425.575625 
L 713.07375 425.575625 
L 713.07375 0 
L 0 0 
z
" style="fill: #161616"/>
  </g>
  <g id="axes_1">
   <g id="patch_2">
    <path d="M 50.72375 385.97375 
L 705.87375 385.97375 
L 705.87375 45.783125 
L 50.72375 45.783125 
z
" style="fill: #1e1e1e"/>
   </g>
   <g id="matplotlib.axis_1">
    <g id="xtick_1">
     <g id="line2d_1">
      <defs>
       <path id="m1ff1acb6f3" d="M 0 0 
L 0 3.5 
" style="stroke: #e6e6e6; stroke-width: 0.8"/>
      </defs>
      <g>
       <use xlink:href="#m1ff1acb6f3" x="159.915417" y="385.97375" style="fill: #e6e6e6; stroke: #e6e6e6; stroke-width: 0.8"/>
      </g>
     </g>
     <g id="text_1">
      <!-- Anchor -->
      <g style="fill: #e6e6e6" transform="translate(143.682604 400.533125) scale(0.1 -0.1)">
       <defs>
        <path id="Georgia-41" d="M 4441 0 
L 2594 0 
L 2594 222 
Q 2838 238 2998 284 
Q 3159 331 3159 400 
Q 3159 428 3153 468 
Q 3147 509 3134 541 
L 2766 1534 
L 1213 1534 
Q 1125 1316 1070 1153 
Q 1016 991 972 853 
Q 931 719 915 634 
Q 900 550 900 497 
Q 900 372 1097 303 
Q 1294 234 1541 222 
L 1541 0 
L -128 0 
L -128 222 
Q -47 228 75 258 
Q 197 288 275 338 
Q 400 422 469 514 
Q 538 606 603 769 
Q 938 1603 1341 2643 
Q 1744 3684 2059 4497 
L 2309 4497 
L 3788 672 
Q 3834 550 3893 475 
Q 3953 400 4059 328 
Q 4131 284 4247 254 
Q 4363 225 4441 222 
L 4441 0 
z
M 2653 1813 
L 1981 3531 
L 1322 1813 
L 2653 1813 
z
" transform="scale(0.015625)"/>
        <path id="Georgia-6e" d="M 3628 0 
L 2119 0 
L 2119 206 
Q 2191 213 2277 219 
Q 2363 225 2419 244 
Q 2506 272 2548 342 
Q 2591 413 2591 525 
L 2591 2109 
Q 2591 2438 2436 2616 
Q 2281 2794 2059 2794 
Q 1894 2794 1756 2742 
Q 1619 2691 1513 2616 
Q 1409 2544 1348 2461 
Q 1288 2378 1259 2328 
L 1259 556 
Q 1259 450 1303 381 
Q 1347 313 1434 275 
Q 1500 244 1576 228 
Q 1653 213 1734 206 
L 1734 0 
L 225 0 
L 225 206 
Q 297 213 373 219 
Q 450 225 506 244 
Q 594 272 636 342 
Q 678 413 678 525 
L 678 2428 
Q 678 2534 633 2623 
Q 588 2713 506 2769 
Q 447 2806 365 2823 
Q 284 2841 191 2847 
L 191 3050 
L 1216 3119 
L 1259 3075 
L 1259 2641 
L 1275 2641 
Q 1350 2716 1462 2820 
Q 1575 2925 1675 2991 
Q 1791 3066 1950 3116 
Q 2109 3166 2309 3166 
Q 2753 3166 2967 2889 
Q 3181 2613 3181 2153 
L 3181 550 
Q 3181 441 3218 373 
Q 3256 306 3347 269 
Q 3422 238 3476 225 
Q 3531 213 3628 206 
L 3628 0 
z
" transform="scale(0.015625)"/>
        <path id="Georgia-63" d="M 1650 -81 
Q 981 -81 603 362 
Q 225 806 225 1553 
Q 225 1878 326 2161 
Q 428 2444 622 2675 
Q 806 2897 1084 3033 
Q 1363 3169 1691 3169 
Q 2144 3169 2428 2951 
Q 2713 2734 2713 2359 
Q 2713 2203 2638 2083 
Q 2563 1963 2391 1963 
Q 2206 1963 2104 2056 
Q 2003 2150 2003 2266 
Q 2003 2406 2040 2554 
Q 2078 2703 2084 2772 
Q 2028 2869 1917 2901 
Q 1806 2934 1678 2934 
Q 1528 2934 1392 2870 
Q 1256 2806 1128 2634 
Q 1013 2478 941 2212 
Q 869 1947 869 1578 
Q 869 997 1126 630 
Q 1384 263 1803 263 
Q 2106 263 2311 409 
Q 2516 556 2691 850 
L 2891 719 
Q 2684 350 2346 134 
Q 2009 -81 1650 -81 
z
" transform="scale(0.015625)"/>
        <path id="Georgia-68" d="M 3572 0 
L 2059 0 
L 2059 206 
Q 2131 213 2218 219 
Q 2306 225 2363 244 
Q 2450 272 2492 342 
Q 2534 413 2534 525 
L 2534 2109 
Q 2534 2438 2379 2616 
Q 2225 2794 2003 2794 
Q 1841 2794 1702 2742 
Q 1563 2691 1453 2616 
Q 1347 2538 1290 2459 
Q 1234 2381 1203 2328 
L 1203 556 
Q 1203 450 1245 381 
Q 1288 313 1375 275 
Q 1444 244 1517 228 
Q 1591 213 1678 206 
L 1678 0 
L 166 0 
L 166 206 
Q 238 213 316 220 
Q 394 228 447 244 
Q 534 272 578 342 
Q 622 413 622 525 
L 622 4113 
Q 622 4219 573 4325 
Q 525 4431 447 4484 
Q 391 4525 248 4542 
Q 106 4559 19 4566 
L 19 4766 
L 1159 4838 
L 1203 4791 
L 1203 2641 
L 1216 2641 
Q 1319 2744 1403 2823 
Q 1488 2903 1625 2991 
Q 1744 3066 1905 3116 
Q 2066 3166 2266 3166 
Q 2678 3166 2900 2905 
Q 3122 2644 3122 2153 
L 3122 550 
Q 3122 441 3161 373 
Q 3200 306 3291 269 
Q 3363 241 3420 227 
Q 3478 213 3572 206 
L 3572 0 
z
" transform="scale(0.015625)"/>
        <path id="Georgia-6f" d="M 3228 1572 
Q 3228 1247 3125 933 
Q 3022 619 2831 400 
Q 2616 150 2331 28 
Q 2047 -94 1694 -94 
Q 1400 -94 1134 17 
Q 869 128 663 341 
Q 459 550 339 851 
Q 219 1153 219 1528 
Q 219 2250 639 2709 
Q 1059 3169 1741 3169 
Q 2388 3169 2808 2733 
Q 3228 2297 3228 1572 
z
M 2581 1566 
Q 2581 1800 2534 2061 
Q 2488 2322 2394 2503 
Q 2294 2697 2131 2814 
Q 1969 2931 1734 2931 
Q 1494 2931 1323 2812 
Q 1153 2694 1047 2488 
Q 947 2297 906 2053 
Q 866 1809 866 1581 
Q 866 1281 914 1026 
Q 963 772 1069 572 
Q 1175 372 1336 258 
Q 1497 144 1734 144 
Q 2125 144 2353 522 
Q 2581 900 2581 1566 
z
" transform="scale(0.015625)"/>
        <path id="Georgia-72" d="M 2584 2684 
Q 2584 2525 2506 2401 
Q 2428 2278 2266 2278 
Q 2091 2278 1998 2368 
Q 1906 2459 1906 2569 
Q 1906 2638 1917 2694 
Q 1928 2750 1938 2806 
Q 1791 2806 1594 2687 
Q 1397 2569 1259 2350 
L 1259 556 
Q 1259 447 1301 378 
Q 1344 309 1434 275 
Q 1513 244 1636 228 
Q 1759 213 1850 206 
L 1850 0 
L 225 0 
L 225 206 
Q 297 213 373 219 
Q 450 225 506 244 
Q 594 272 636 342 
Q 678 413 678 525 
L 678 2428 
Q 678 2525 633 2619 
Q 588 2713 506 2769 
Q 447 2806 365 2823 
Q 284 2841 191 2847 
L 191 3050 
L 1216 3119 
L 1259 3075 
L 1259 2641 
L 1275 2641 
Q 1469 2894 1706 3025 
Q 1944 3156 2141 3156 
Q 2338 3156 2461 3028 
Q 2584 2900 2584 2684 
z
" transform="scale(0.015625)"/>
       </defs>
       <use xlink:href="#Georgia-41"/>
       <use xlink:href="#Georgia-6e" transform="translate(67.089844 0)"/>
       <use xlink:href="#Georgia-63" transform="translate(126.171875 0)"/>
       <use xlink:href="#Georgia-68" transform="translate(171.582031 0)"/>
       <use xlink:href="#Georgia-6f" transform="translate(229.785156 0)"/>
       <use xlink:href="#Georgia-72" transform="translate(283.691406 0)"/>
      </g>
     </g>
    </g>
    <g id="xtick_2">
     <g id="line2d_2">
      <g>
       <use xlink:href="#m1ff1acb6f3" x="378.29875" y="385.97375" style="fill: #e6e6e6; stroke: #e6e6e6; stroke-width: 0.8"/>
      </g>
     </g>
     <g id="text_2">
      <!-- Rotator -->
      <g style="fill: #e6e6e6" transform="translate(361.38 400.533125) scale(0.1 -0.1)">
       <defs>
        <path id="Georgia-52" d="M 4625 0 
L 3431 0 
Q 3034 622 2714 1075 
Q 2394 1528 2019 2009 
L 1566 2009 
L 1566 603 
Q 1566 494 1600 411 
Q 1634 328 1747 284 
Q 1803 263 1943 244 
Q 2084 225 2181 222 
L 2181 0 
L 306 0 
L 306 222 
Q 381 228 523 243 
Q 666 259 722 284 
Q 816 325 858 403 
Q 900 481 900 603 
L 900 3809 
Q 900 3919 869 4003 
Q 838 4088 722 4131 
Q 644 4159 519 4182 
Q 394 4206 306 4213 
L 306 4434 
L 2353 4434 
Q 2634 4434 2881 4376 
Q 3128 4319 3328 4191 
Q 3522 4066 3637 3864 
Q 3753 3663 3753 3378 
Q 3753 3122 3675 2925 
Q 3597 2728 3444 2584 
Q 3303 2450 3106 2351 
Q 2909 2253 2672 2184 
Q 3000 1750 3217 1453 
Q 3434 1156 3750 731 
Q 3888 544 3998 455 
Q 4109 366 4219 309 
Q 4300 269 4422 247 
Q 4544 225 4625 222 
L 4625 0 
z
M 2981 3306 
Q 2981 3709 2750 3945 
Q 2519 4181 2097 4181 
L 1566 4181 
L 1566 2278 
L 1975 2278 
Q 2406 2278 2693 2554 
Q 2981 2831 2981 3306 
z
" transform="scale(0.015625)"/>
        <path id="Georgia-74" d="M 2128 134 
Q 1925 50 1744 -8 
Q 1563 -66 1300 -66 
Q 913 -66 755 129 
Q 597 325 597 681 
L 597 2769 
L 41 2769 
L 41 3069 
L 609 3069 
L 609 4028 
L 1178 4028 
L 1178 3069 
L 2063 3069 
L 2063 2769 
L 1184 2769 
L 1184 1047 
Q 1184 853 1198 723 
Q 1213 594 1266 497 
Q 1316 406 1416 359 
Q 1516 313 1684 313 
Q 1763 313 1914 327 
Q 2066 341 2128 363 
L 2128 134 
z
" transform="scale(0.015625)"/>
        <path id="Georgia-61" d="M 3144 56 
Q 2997 3 2886 -30 
Q 2775 -63 2634 -63 
Q 2391 -63 2245 51 
Q 2100 166 2059 384 
L 2041 384 
Q 1838 159 1605 40 
Q 1372 -78 1044 -78 
Q 697 -78 473 134 
Q 250 347 250 691 
Q 250 869 300 1009 
Q 350 1150 450 1263 
Q 528 1356 656 1429 
Q 784 1503 897 1547 
Q 1038 1600 1467 1744 
Q 1897 1888 2047 1969 
L 2047 2278 
Q 2047 2319 2030 2434 
Q 2013 2550 1956 2653 
Q 1894 2769 1780 2855 
Q 1666 2941 1456 2941 
Q 1313 2941 1189 2892 
Q 1066 2844 1016 2791 
Q 1016 2728 1045 2606 
Q 1075 2484 1075 2381 
Q 1075 2272 976 2181 
Q 878 2091 703 2091 
Q 547 2091 473 2202 
Q 400 2313 400 2450 
Q 400 2594 501 2725 
Q 603 2856 766 2959 
Q 906 3047 1106 3108 
Q 1306 3169 1497 3169 
Q 1759 3169 1954 3133 
Q 2150 3097 2309 2978 
Q 2469 2863 2551 2664 
Q 2634 2466 2634 2153 
Q 2634 1706 2625 1361 
Q 2616 1016 2616 606 
Q 2616 484 2658 412 
Q 2700 341 2788 291 
Q 2834 263 2936 259 
Q 3038 256 3144 256 
L 3144 56 
z
M 2053 1706 
Q 1788 1628 1588 1553 
Q 1388 1478 1216 1366 
Q 1059 1259 968 1114 
Q 878 969 878 769 
Q 878 509 1014 387 
Q 1150 266 1359 266 
Q 1581 266 1750 373 
Q 1919 481 2034 628 
L 2053 1706 
z
" transform="scale(0.015625)"/>
       </defs>
       <use xlink:href="#Georgia-52"/>
       <use xlink:href="#Georgia-6f" transform="translate(70.166016 0)"/>
       <use xlink:href="#Georgia-74" transform="translate(124.072266 0)"/>
       <use xlink:href="#Georgia-61" transform="translate(158.59375 0)"/>
       <use xlink:href="#Georgia-74" transform="translate(208.984375 0)"/>
       <use xlink:href="#Georgia-6f" transform="translate(243.505859 0)"/>
       <use xlink:href="#Georgia-72" transform="translate(297.412109 0)"/>
      </g>
     </g>
    </g>
    <g id="xtick_3">
     <g id="line2d_3">
      <g>
       <use xlink:href="#m1ff1acb6f3" x="596.682083" y="385.97375" style="fill: #e6e6e6; stroke: #e6e6e6; stroke-width: 0.8"/>
      </g>
     </g>
     <g id="text_3">
      <!-- AWPer -->
      <g style="fill: #e6e6e6" transform="translate(580.934427 400.533125) scale(0.1 -0.1)">
       <defs>
        <path id="Georgia-57" d="M 6338 4213 
Q 6259 4209 6156 4176 
Q 6053 4144 5966 4091 
Q 5856 4022 5789 3933 
Q 5722 3844 5672 3684 
Q 5450 2963 5156 1998 
Q 4863 1034 4522 -56 
L 4234 -56 
L 3116 3356 
L 1950 -56 
L 1675 -56 
Q 1366 1038 1034 2214 
Q 703 3391 591 3791 
Q 563 3888 508 3963 
Q 453 4038 359 4100 
Q 281 4153 176 4179 
Q 72 4206 -13 4213 
L -13 4434 
L 1797 4434 
L 1797 4213 
Q 1559 4200 1392 4165 
Q 1225 4131 1225 4050 
Q 1225 4019 1234 3967 
Q 1244 3916 1250 3884 
Q 1322 3609 1505 2976 
Q 1688 2344 2047 1081 
L 3153 4372 
L 3459 4372 
L 4575 1009 
Q 4800 1784 4962 2364 
Q 5125 2944 5231 3356 
Q 5306 3647 5325 3755 
Q 5344 3863 5344 3938 
Q 5344 4044 5198 4116 
Q 5053 4188 4728 4213 
L 4728 4434 
L 6338 4434 
L 6338 4213 
z
" transform="scale(0.015625)"/>
        <path id="Georgia-50" d="M 3700 3341 
Q 3700 2994 3564 2726 
Q 3428 2459 3188 2284 
Q 2950 2109 2665 2028 
Q 2381 1947 2063 1947 
L 1566 1947 
L 1566 603 
Q 1566 494 1602 411 
Q 1638 328 1750 284 
Q 1806 263 1948 244 
Q 2091 225 2209 222 
L 2209 0 
L 306 0 
L 306 222 
Q 381 228 523 243 
Q 666 259 722 284 
Q 816 325 858 403 
Q 900 481 900 603 
L 900 3803 
Q 900 3913 869 4000 
Q 838 4088 722 4131 
Q 603 4172 486 4189 
Q 369 4206 284 4213 
L 284 4434 
L 2309 4434 
Q 2928 4434 3314 4136 
Q 3700 3838 3700 3341 
z
M 2750 2584 
Q 2856 2734 2890 2895 
Q 2925 3056 2925 3184 
Q 2925 3363 2883 3547 
Q 2841 3731 2738 3869 
Q 2628 4016 2450 4097 
Q 2272 4178 2006 4178 
L 1566 4178 
L 1566 2219 
L 1884 2219 
Q 2222 2219 2433 2323 
Q 2644 2428 2750 2584 
z
" transform="scale(0.015625)"/>
        <path id="Georgia-65" d="M 2963 725 
Q 2769 356 2444 137 
Q 2119 -81 1697 -81 
Q 1325 -81 1045 50 
Q 766 181 584 406 
Q 403 631 314 931 
Q 225 1231 225 1566 
Q 225 1866 320 2155 
Q 416 2444 600 2675 
Q 778 2897 1042 3033 
Q 1306 3169 1634 3169 
Q 1972 3169 2212 3062 
Q 2453 2956 2603 2772 
Q 2747 2597 2817 2359 
Q 2888 2122 2888 1844 
L 2888 1638 
L 847 1638 
Q 847 1334 905 1087 
Q 963 841 1088 653 
Q 1209 472 1406 367 
Q 1603 263 1875 263 
Q 2153 263 2354 392 
Q 2556 522 2744 859 
L 2963 725 
z
M 2272 1900 
Q 2272 2075 2242 2275 
Q 2213 2475 2147 2609 
Q 2075 2753 1950 2843 
Q 1825 2934 1628 2934 
Q 1300 2934 1083 2661 
Q 866 2388 847 1900 
L 2272 1900 
z
" transform="scale(0.015625)"/>
       </defs>
       <use xlink:href="#Georgia-41"/>
       <use xlink:href="#Georgia-57" transform="translate(67.089844 0)"/>
       <use xlink:href="#Georgia-50" transform="translate(164.648438 0)"/>
       <use xlink:href="#Georgia-65" transform="translate(225.634766 0)"/>
       <use xlink:href="#Georgia-72" transform="translate(273.974609 0)"/>
      </g>
     </g>
    </g>
    <g id="text_4">
     <!-- Assigned CT Role -->
     <g style="fill: #e6e6e6" transform="translate(324.92875 415.773125) scale(0.12 -0.12)">
      <defs>
       <path id="Georgia-Bold-41" d="M 5028 0 
L 2613 0 
L 2613 244 
Q 2781 256 3009 304 
Q 3238 353 3238 425 
Q 3238 450 3233 481 
Q 3228 513 3206 566 
L 2828 1484 
L 1297 1484 
Q 1244 1356 1180 1184 
Q 1116 1013 1069 878 
Q 1009 703 998 625 
Q 988 547 988 516 
Q 988 416 1139 345 
Q 1291 275 1644 244 
L 1644 0 
L -175 0 
L -175 244 
Q -72 250 58 276 
Q 188 303 263 350 
Q 391 425 480 534 
Q 569 644 628 794 
Q 991 1672 1355 2553 
Q 1719 3434 2159 4497 
L 2784 4497 
Q 3397 2991 3744 2116 
Q 4091 1241 4334 666 
Q 4375 572 4437 495 
Q 4500 419 4616 350 
Q 4703 300 4818 275 
Q 4934 250 5028 244 
L 5028 0 
z
M 2700 1794 
L 2056 3400 
L 1422 1794 
L 2700 1794 
z
" transform="scale(0.015625)"/>
       <path id="Georgia-Bold-73" d="M 1628 -106 
Q 1325 -106 1036 -17 
Q 747 72 588 172 
L 494 -41 
L 250 -41 
L 209 1125 
L 438 1125 
Q 484 984 593 807 
Q 703 631 844 491 
Q 991 350 1180 253 
Q 1369 156 1584 156 
Q 1869 156 2008 267 
Q 2147 378 2147 609 
Q 2147 734 2084 815 
Q 2022 897 1913 956 
Q 1791 1019 1645 1062 
Q 1500 1106 1288 1169 
Q 1075 1231 923 1295 
Q 772 1359 609 1497 
Q 469 1619 384 1791 
Q 300 1963 300 2200 
Q 300 2641 670 2912 
Q 1041 3184 1641 3184 
Q 1925 3184 2164 3126 
Q 2403 3069 2566 3000 
L 2631 3184 
L 2869 3184 
L 2919 2119 
L 2697 2119 
Q 2588 2444 2322 2680 
Q 2056 2916 1750 2916 
Q 1509 2916 1371 2816 
Q 1234 2716 1234 2538 
Q 1234 2300 1436 2194 
Q 1638 2088 2000 1994 
Q 2559 1850 2818 1601 
Q 3078 1353 3078 969 
Q 3078 456 2676 175 
Q 2275 -106 1628 -106 
z
" transform="scale(0.015625)"/>
       <path id="Georgia-Bold-69" d="M 2156 0 
L 181 0 
L 181 228 
Q 263 234 341 243 
Q 419 253 475 275 
Q 575 313 615 383 
Q 656 453 656 569 
L 656 2388 
Q 656 2497 606 2580 
Q 556 2663 481 2713 
Q 425 2750 311 2784 
Q 197 2819 103 2828 
L 103 3056 
L 1634 3138 
L 1681 3091 
L 1681 609 
Q 1681 500 1728 423 
Q 1775 347 1863 309 
Q 1925 281 2000 259 
Q 2075 238 2156 228 
L 2156 0 
z
M 1700 4263 
Q 1700 4025 1517 3858 
Q 1334 3691 1084 3691 
Q 831 3691 648 3858 
Q 466 4025 466 4263 
Q 466 4500 648 4669 
Q 831 4838 1084 4838 
Q 1338 4838 1519 4669 
Q 1700 4500 1700 4263 
z
" transform="scale(0.015625)"/>
       <path id="Georgia-Bold-67" d="M 3681 2750 
L 2994 2750 
Q 3116 2613 3177 2459 
Q 3238 2306 3238 2141 
Q 3238 1925 3122 1736 
Q 3006 1547 2819 1428 
Q 2628 1306 2372 1237 
Q 2116 1169 1816 1169 
L 1306 1169 
Q 1269 1141 1223 1080 
Q 1178 1019 1178 963 
Q 1178 825 1287 772 
Q 1397 719 1684 713 
Q 1969 706 2259 689 
Q 2550 672 2675 669 
Q 2856 659 3034 595 
Q 3213 531 3344 428 
Q 3488 319 3581 148 
Q 3675 -22 3675 -244 
Q 3675 -481 3561 -690 
Q 3447 -900 3213 -1053 
Q 2966 -1213 2620 -1300 
Q 2275 -1388 1766 -1388 
Q 944 -1388 516 -1188 
Q 88 -988 88 -588 
Q 88 -341 319 -181 
Q 550 -22 1038 -6 
L 1038 31 
Q 750 128 589 289 
Q 428 450 428 663 
Q 428 794 492 884 
Q 556 975 656 1044 
Q 744 1103 869 1145 
Q 994 1188 1078 1213 
L 1078 1247 
Q 656 1403 457 1628 
Q 259 1853 259 2178 
Q 259 2638 682 2913 
Q 1106 3188 1756 3188 
Q 1969 3188 2167 3152 
Q 2366 3116 2469 3088 
L 3681 3088 
L 3681 2750 
z
M 2216 2153 
Q 2216 2519 2100 2731 
Q 1984 2944 1744 2944 
Q 1622 2944 1531 2886 
Q 1441 2828 1384 2719 
Q 1331 2613 1312 2470 
Q 1294 2328 1294 2178 
Q 1294 1838 1412 1619 
Q 1531 1400 1750 1400 
Q 1975 1400 2095 1597 
Q 2216 1794 2216 2153 
z
M 2741 -472 
Q 2741 -366 2681 -261 
Q 2622 -156 2416 -91 
Q 2303 -72 2045 -65 
Q 1788 -59 1338 -59 
Q 1228 -153 1154 -281 
Q 1081 -409 1081 -591 
Q 1081 -669 1125 -762 
Q 1169 -856 1263 -938 
Q 1372 -1028 1506 -1079 
Q 1641 -1131 1913 -1131 
Q 2316 -1131 2528 -975 
Q 2741 -819 2741 -472 
z
" transform="scale(0.015625)"/>
       <path id="Georgia-Bold-6e" d="M 4306 0 
L 2425 0 
L 2425 228 
Q 2484 234 2568 243 
Q 2653 253 2697 275 
Q 2763 309 2791 375 
Q 2819 441 2819 569 
L 2819 2031 
Q 2819 2350 2701 2511 
Q 2584 2672 2356 2672 
Q 2231 2672 2123 2634 
Q 2016 2597 1913 2525 
Q 1822 2463 1767 2397 
Q 1713 2331 1675 2281 
L 1675 603 
Q 1675 494 1706 420 
Q 1738 347 1809 309 
Q 1859 281 1934 259 
Q 2009 238 2081 228 
L 2081 0 
L 181 0 
L 181 228 
Q 259 234 339 245 
Q 419 256 475 275 
Q 575 309 612 381 
Q 650 453 650 569 
L 650 2388 
Q 650 2484 600 2578 
Q 550 2672 469 2731 
Q 413 2769 327 2794 
Q 241 2819 138 2828 
L 138 3056 
L 1628 3138 
L 1675 3091 
L 1675 2638 
L 1688 2638 
Q 1775 2716 1900 2825 
Q 2025 2934 2131 3003 
Q 2247 3078 2434 3131 
Q 2622 3184 2834 3184 
Q 3344 3184 3598 2895 
Q 3853 2606 3853 2128 
L 3853 597 
Q 3853 481 3887 412 
Q 3922 344 4016 303 
Q 4066 281 4139 259 
Q 4213 238 4306 228 
L 4306 0 
z
" transform="scale(0.015625)"/>
       <path id="Georgia-Bold-65" d="M 3541 747 
Q 3431 569 3276 411 
Q 3122 253 2925 141 
Q 2716 22 2502 -39 
Q 2288 -100 2009 -100 
Q 1547 -100 1211 31 
Q 875 163 656 384 
Q 438 606 330 907 
Q 222 1209 222 1563 
Q 222 1881 339 2173 
Q 456 2466 672 2694 
Q 884 2916 1207 3053 
Q 1531 3191 1931 3191 
Q 2369 3191 2650 3084 
Q 2931 2978 3116 2791 
Q 3294 2613 3375 2370 
Q 3456 2128 3456 1863 
L 3456 1659 
L 1344 1659 
Q 1344 1019 1591 684 
Q 1838 350 2375 350 
Q 2669 350 2903 511 
Q 3138 672 3303 919 
L 3541 747 
z
M 2347 1934 
Q 2347 2122 2328 2319 
Q 2309 2516 2263 2641 
Q 2209 2788 2117 2863 
Q 2025 2938 1884 2938 
Q 1644 2938 1500 2694 
Q 1356 2450 1344 1922 
L 2347 1934 
z
" transform="scale(0.015625)"/>
       <path id="Georgia-Bold-64" d="M 4222 66 
L 2681 -25 
L 2634 19 
L 2634 306 
L 2613 313 
Q 2459 147 2198 23 
Q 1938 -100 1672 -100 
Q 1041 -100 631 369 
Q 222 838 222 1581 
Q 222 2241 680 2712 
Q 1138 3184 1788 3184 
Q 2044 3184 2269 3126 
Q 2494 3069 2628 2991 
L 2628 4013 
Q 2628 4128 2581 4229 
Q 2534 4331 2456 4388 
Q 2359 4456 2214 4486 
Q 2069 4516 1922 4528 
L 1922 4756 
L 3609 4838 
L 3656 4788 
L 3656 691 
Q 3656 572 3695 490 
Q 3734 409 3822 363 
Q 3888 328 4014 312 
Q 4141 297 4222 294 
L 4222 66 
z
M 2628 622 
L 2628 2388 
Q 2606 2459 2567 2546 
Q 2528 2634 2459 2713 
Q 2397 2778 2292 2828 
Q 2188 2878 2056 2878 
Q 1744 2878 1544 2525 
Q 1344 2172 1344 1528 
Q 1344 1275 1380 1073 
Q 1416 872 1506 706 
Q 1597 541 1739 447 
Q 1881 353 2081 353 
Q 2272 353 2397 426 
Q 2522 500 2628 622 
z
" transform="scale(0.015625)"/>
       <path id="Georgia-Bold-20" transform="scale(0.015625)"/>
       <path id="Georgia-Bold-43" d="M 2541 -119 
Q 2053 -119 1628 39 
Q 1203 197 888 497 
Q 578 791 400 1223 
Q 222 1656 222 2175 
Q 222 2691 401 3130 
Q 581 3569 906 3891 
Q 1225 4206 1672 4379 
Q 2119 4553 2628 4553 
Q 2997 4553 3300 4464 
Q 3603 4375 3813 4263 
L 4006 4434 
L 4278 4434 
L 4306 2816 
L 4031 2816 
Q 3797 3556 3469 3903 
Q 3141 4250 2669 4250 
Q 2081 4250 1775 3733 
Q 1469 3216 1469 2281 
Q 1469 1753 1573 1379 
Q 1678 1006 1847 778 
Q 2028 541 2275 430 
Q 2522 319 2822 319 
Q 3259 319 3601 556 
Q 3944 794 4225 1275 
L 4494 1113 
Q 4359 838 4187 620 
Q 4016 403 3791 247 
Q 3544 75 3245 -22 
Q 2947 -119 2541 -119 
z
" transform="scale(0.015625)"/>
       <path id="Georgia-Bold-54" d="M 4338 3166 
L 4097 3166 
Q 4000 3450 3786 3775 
Q 3572 4100 3391 4125 
Q 3291 4138 3144 4147 
Q 2997 4156 2891 4156 
L 2744 4156 
L 2744 678 
Q 2744 566 2784 480 
Q 2825 394 2944 344 
Q 3016 316 3167 286 
Q 3319 256 3425 244 
L 3425 0 
L 953 0 
L 953 244 
Q 1044 253 1208 270 
Q 1372 288 1431 313 
Q 1553 363 1593 447 
Q 1634 531 1634 647 
L 1634 4156 
L 1488 4156 
Q 1381 4156 1234 4147 
Q 1088 4138 988 4125 
Q 806 4100 592 3775 
Q 378 3450 281 3166 
L 41 3166 
L 41 4434 
L 4338 4434 
L 4338 3166 
z
" transform="scale(0.015625)"/>
       <path id="Georgia-Bold-52" d="M 5306 0 
L 3606 0 
Q 3166 675 2873 1075 
Q 2581 1475 2147 2000 
L 1975 2000 
L 1975 653 
Q 1975 541 2017 462 
Q 2059 384 2178 331 
Q 2238 306 2364 279 
Q 2491 253 2581 244 
L 2581 0 
L 216 0 
L 216 244 
Q 306 253 454 270 
Q 603 288 666 313 
Q 784 363 825 439 
Q 866 516 866 634 
L 866 3763 
Q 866 3875 831 3950 
Q 797 4025 666 4081 
Q 566 4122 430 4150 
Q 294 4178 216 4191 
L 216 4434 
L 2703 4434 
Q 3538 4434 3970 4173 
Q 4403 3913 4403 3384 
Q 4403 2919 4136 2636 
Q 3869 2353 3322 2194 
Q 3534 1919 3817 1556 
Q 4100 1194 4406 816 
Q 4503 694 4670 517 
Q 4838 341 4966 300 
Q 5038 278 5148 262 
Q 5259 247 5306 244 
L 5306 0 
z
M 3178 3297 
Q 3178 3741 2929 3945 
Q 2681 4150 2222 4150 
L 1975 4150 
L 1975 2294 
L 2213 2294 
Q 2672 2294 2925 2534 
Q 3178 2775 3178 3297 
z
" transform="scale(0.015625)"/>
       <path id="Georgia-Bold-6f" d="M 3372 2731 
Q 3603 2516 3725 2216 
Q 3847 1916 3847 1566 
Q 3847 1219 3726 911 
Q 3606 603 3375 384 
Q 3128 150 2786 25 
Q 2444 -100 2003 -100 
Q 1622 -100 1301 9 
Q 981 119 734 338 
Q 497 547 359 855 
Q 222 1163 222 1544 
Q 222 1919 342 2211 
Q 463 2503 703 2731 
Q 934 2950 1273 3070 
Q 1613 3191 2031 3191 
Q 2469 3191 2801 3070 
Q 3134 2950 3372 2731 
z
M 2572 566 
Q 2641 741 2673 991 
Q 2706 1241 2706 1572 
Q 2706 1791 2675 2072 
Q 2644 2353 2581 2516 
Q 2506 2713 2373 2825 
Q 2241 2938 2038 2938 
Q 1816 2938 1683 2816 
Q 1550 2694 1478 2500 
Q 1413 2322 1388 2083 
Q 1363 1844 1363 1584 
Q 1363 1244 1384 1020 
Q 1406 797 1491 572 
Q 1563 378 1697 265 
Q 1831 153 2038 153 
Q 2225 153 2359 258 
Q 2494 363 2572 566 
z
" transform="scale(0.015625)"/>
       <path id="Georgia-Bold-6c" d="M 2084 0 
L 125 0 
L 125 228 
Q 206 234 282 243 
Q 359 253 419 275 
Q 519 313 555 383 
Q 591 453 591 569 
L 591 4031 
Q 591 4150 542 4251 
Q 494 4353 413 4406 
Q 350 4447 223 4484 
Q 97 4522 0 4528 
L 0 4756 
L 1572 4838 
L 1619 4788 
L 1619 609 
Q 1619 494 1659 422 
Q 1700 350 1791 309 
Q 1853 281 1922 259 
Q 1991 238 2084 228 
L 2084 0 
z
" transform="scale(0.015625)"/>
      </defs>
      <use xlink:href="#Georgia-Bold-41"/>
      <use xlink:href="#Georgia-Bold-73" transform="translate(75.830078 0)"/>
      <use xlink:href="#Georgia-Bold-73" transform="translate(127.099609 0)"/>
      <use xlink:href="#Georgia-Bold-69" transform="translate(178.369141 0)"/>
      <use xlink:href="#Georgia-Bold-67" transform="translate(213.720703 0)"/>
      <use xlink:href="#Georgia-Bold-6e" transform="translate(271.386719 0)"/>
      <use xlink:href="#Georgia-Bold-65" transform="translate(340.380859 0)"/>
      <use xlink:href="#Georgia-Bold-64" transform="translate(397.558594 0)"/>
      <use xlink:href="#Georgia-Bold-20" transform="translate(463.867188 0)"/>
      <use xlink:href="#Georgia-Bold-43" transform="translate(489.257812 0)"/>
      <use xlink:href="#Georgia-Bold-54" transform="translate(560.791016 0)"/>
      <use xlink:href="#Georgia-Bold-20" transform="translate(629.199219 0)"/>
      <use xlink:href="#Georgia-Bold-52" transform="translate(654.589844 0)"/>
      <use xlink:href="#Georgia-Bold-6f" transform="translate(734.326172 0)"/>
      <use xlink:href="#Georgia-Bold-6c" transform="translate(797.900391 0)"/>
      <use xlink:href="#Georgia-Bold-65" transform="translate(832.324219 0)"/>
     </g>
    </g>
   </g>
   <g id="matplotlib.axis_2">
    <g id="ytick_1">
     <g id="line2d_4">
      <path d="M 50.72375 331.727227 
L 705.87375 331.727227 
" clip-path="url(#pef7ff0bc13)" style="fill: none; stroke: #3a3a3a; stroke-opacity: 0.35; stroke-width: 0.8; stroke-linecap: square"/>
     </g>
     <g id="line2d_5">
      <defs>
       <path id="m23de2e84f0" d="M 0 0 
L -3.5 0 
" style="stroke: #e6e6e6; stroke-width: 0.8"/>
      </defs>
      <g>
       <use xlink:href="#m23de2e84f0" x="50.72375" y="331.727227" style="fill: #e6e6e6; stroke: #e6e6e6; stroke-width: 0.8"/>
      </g>
     </g>
     <g id="text_5">
      <!-- −0.2 -->
      <g style="fill: #e6e6e6" transform="translate(22.87375 335.506915) scale(0.1 -0.1)">
       <defs>
        <path id="Georgia-2212" d="M 3650 1553 
L 466 1553 
L 466 1944 
L 3650 1944 
L 3650 1553 
z
" transform="scale(0.015625)"/>
        <path id="Georgia-30" d="M 3209 2919 
Q 3409 2678 3507 2354 
Q 3606 2031 3606 1678 
Q 3606 1253 3484 917 
Q 3363 581 3150 359 
Q 2931 131 2631 15 
Q 2331 -100 1963 -100 
Q 1559 -100 1243 34 
Q 928 169 731 403 
Q 525 647 423 973 
Q 322 1300 322 1678 
Q 322 2050 420 2362 
Q 519 2675 728 2928 
Q 928 3172 1243 3312 
Q 1559 3453 1966 3453 
Q 2394 3453 2700 3309 
Q 3006 3166 3209 2919 
z
M 2916 1678 
Q 2916 2422 2661 2831 
Q 2406 3241 1969 3241 
Q 1525 3241 1269 2831 
Q 1013 2422 1013 1678 
Q 1013 972 1258 542 
Q 1503 113 1963 113 
Q 2422 113 2669 542 
Q 2916 972 2916 1678 
z
" transform="scale(0.015625)"/>
        <path id="Georgia-2e" d="M 1297 359 
Q 1297 184 1170 60 
Q 1044 -63 869 -63 
Q 694 -63 567 60 
Q 441 184 441 359 
Q 441 534 567 661 
Q 694 788 869 788 
Q 1044 788 1170 661 
Q 1297 534 1297 359 
z
" transform="scale(0.015625)"/>
        <path id="Georgia-32" d="M 3272 0 
L 344 0 
L 344 425 
Q 428 522 578 642 
Q 728 763 934 903 
Q 1059 988 1234 1088 
Q 1409 1188 1631 1306 
Q 1878 1438 2011 1538 
Q 2144 1638 2253 1784 
Q 2325 1881 2369 2026 
Q 2413 2172 2413 2441 
Q 2413 2831 2203 3014 
Q 1994 3197 1666 3197 
Q 1463 3197 1281 3117 
Q 1100 3038 1009 2897 
Q 1031 2797 1064 2659 
Q 1097 2522 1097 2391 
Q 1097 2272 998 2180 
Q 900 2088 706 2088 
Q 550 2088 465 2195 
Q 381 2303 381 2484 
Q 381 2653 475 2823 
Q 569 2994 744 3138 
Q 916 3278 1169 3365 
Q 1422 3453 1716 3453 
Q 2356 3453 2732 3167 
Q 3109 2881 3109 2403 
Q 3109 2175 3042 1987 
Q 2975 1800 2825 1656 
Q 2659 1497 2437 1383 
Q 2216 1269 1759 1066 
Q 1488 944 1253 811 
Q 1019 678 869 553 
L 3272 553 
L 3272 0 
z
" transform="scale(0.015625)"/>
       </defs>
       <use xlink:href="#Georgia-2212"/>
       <use xlink:href="#Georgia-30" transform="translate(64.306641 0)"/>
       <use xlink:href="#Georgia-2e" transform="translate(125.683594 0)"/>
       <use xlink:href="#Georgia-32" transform="translate(152.636719 0)"/>
      </g>
     </g>
    </g>
    <g id="ytick_2">
     <g id="line2d_6">
      <path d="M 50.72375 256.355471 
L 705.87375 256.355471 
" clip-path="url(#pef7ff0bc13)" style="fill: none; stroke: #3a3a3a; stroke-opacity: 0.35; stroke-width: 0.8; stroke-linecap: square"/>
     </g>
     <g id="line2d_7">
      <g>
       <use xlink:href="#m23de2e84f0" x="50.72375" y="256.355471" style="fill: #e6e6e6; stroke: #e6e6e6; stroke-width: 0.8"/>
      </g>
     </g>
     <g id="text_6">
      <!-- −0.1 -->
      <g style="fill: #e6e6e6" transform="translate(24.162813 260.135158) scale(0.1 -0.1)">
       <defs>
        <path id="Georgia-31" d="M 2528 0 
L 422 0 
L 422 222 
Q 516 228 714 248 
Q 913 269 988 291 
Q 1084 322 1136 392 
Q 1188 463 1188 603 
L 1188 2797 
L 409 2797 
L 409 3059 
L 581 3059 
Q 919 3059 1186 3184 
Q 1453 3309 1569 3453 
L 1828 3453 
Q 1819 3250 1809 2978 
Q 1800 2706 1800 2491 
L 1800 638 
Q 1800 528 1848 442 
Q 1897 356 1988 316 
Q 2069 281 2253 253 
Q 2438 225 2528 222 
L 2528 0 
z
" transform="scale(0.015625)"/>
       </defs>
       <use xlink:href="#Georgia-2212"/>
       <use xlink:href="#Georgia-30" transform="translate(64.306641 0)"/>
       <use xlink:href="#Georgia-2e" transform="translate(125.683594 0)"/>
       <use xlink:href="#Georgia-31" transform="translate(152.636719 0)"/>
      </g>
     </g>
    </g>
    <g id="ytick_3">
     <g id="line2d_8">
      <path d="M 50.72375 180.983715 
L 705.87375 180.983715 
" clip-path="url(#pef7ff0bc13)" style="fill: none; stroke: #3a3a3a; stroke-opacity: 0.35; stroke-width: 0.8; stroke-linecap: square"/>
     </g>
     <g id="line2d_9">
      <g>
       <use xlink:href="#m23de2e84f0" x="50.72375" y="180.983715" style="fill: #e6e6e6; stroke: #e6e6e6; stroke-width: 0.8"/>
      </g>
     </g>
     <g id="text_7">
      <!-- 0.0 -->
      <g style="fill: #e6e6e6" transform="translate(28.753438 184.763402) scale(0.1 -0.1)">
       <use xlink:href="#Georgia-30"/>
       <use xlink:href="#Georgia-2e" transform="translate(61.376953 0)"/>
       <use xlink:href="#Georgia-30" transform="translate(88.330078 0)"/>
      </g>
     </g>
    </g>
    <g id="ytick_4">
     <g id="line2d_10">
      <path d="M 50.72375 105.611959 
L 705.87375 105.611959 
" clip-path="url(#pef7ff0bc13)" style="fill: none; stroke: #3a3a3a; stroke-opacity: 0.35; stroke-width: 0.8; stroke-linecap: square"/>
     </g>
     <g id="line2d_11">
      <g>
       <use xlink:href="#m23de2e84f0" x="50.72375" y="105.611959" style="fill: #e6e6e6; stroke: #e6e6e6; stroke-width: 0.8"/>
      </g>
     </g>
     <g id="text_8">
      <!-- 0.1 -->
      <g style="fill: #e6e6e6" transform="translate(30.594062 109.391646) scale(0.1 -0.1)">
       <use xlink:href="#Georgia-30"/>
       <use xlink:href="#Georgia-2e" transform="translate(61.376953 0)"/>
       <use xlink:href="#Georgia-31" transform="translate(88.330078 0)"/>
      </g>
     </g>
    </g>
    <g id="text_9">
     <!-- ADAT (R) -->
     <g style="fill: #e6e6e6" transform="translate(16.27125 245.754687) rotate(-90) scale(0.12 -0.12)">
      <defs>
       <path id="Georgia-Bold-44" d="M 4209 3978 
Q 4616 3713 4866 3270 
Q 5116 2828 5116 2188 
Q 5116 1625 4892 1208 
Q 4669 791 4300 525 
Q 3925 259 3448 129 
Q 2972 0 2450 0 
L 216 0 
L 216 244 
Q 316 247 466 262 
Q 616 278 666 300 
Q 778 347 822 426 
Q 866 506 866 619 
L 866 3763 
Q 866 3869 825 3955 
Q 784 4041 666 4094 
Q 547 4147 414 4165 
Q 281 4184 209 4191 
L 209 4434 
L 2569 4434 
Q 2947 4434 3378 4337 
Q 3809 4241 4209 3978 
z
M 3572 800 
Q 3725 1050 3795 1395 
Q 3866 1741 3866 2191 
Q 3866 2631 3772 2993 
Q 3678 3356 3497 3613 
Q 3316 3869 3045 4009 
Q 2775 4150 2431 4150 
Q 2322 4150 2183 4145 
Q 2044 4141 1975 4138 
L 1975 772 
Q 1975 659 2004 573 
Q 2034 488 2106 422 
Q 2178 356 2283 320 
Q 2388 284 2556 284 
Q 2909 284 3162 415 
Q 3416 547 3572 800 
z
" transform="scale(0.015625)"/>
       <path id="Georgia-Bold-28" d="M 2650 -1025 
Q 2222 -969 1811 -772 
Q 1400 -575 1078 -219 
Q 753 138 556 658 
Q 359 1178 359 1881 
Q 359 2584 556 3104 
Q 753 3625 1078 3981 
Q 1400 4334 1811 4532 
Q 2222 4731 2650 4788 
L 2650 4506 
Q 2059 4397 1743 3745 
Q 1428 3094 1428 1881 
Q 1428 669 1743 17 
Q 2059 -634 2650 -744 
L 2650 -1025 
z
" transform="scale(0.015625)"/>
       <path id="Georgia-Bold-29" d="M 2503 1881 
Q 2503 1178 2306 658 
Q 2109 138 1784 -219 
Q 1463 -572 1052 -770 
Q 641 -969 213 -1025 
L 213 -744 
Q 803 -634 1118 17 
Q 1434 669 1434 1881 
Q 1434 3094 1118 3745 
Q 803 4397 213 4506 
L 213 4788 
Q 641 4731 1052 4532 
Q 1463 4334 1784 3981 
Q 2109 3625 2306 3104 
Q 2503 2584 2503 1881 
z
" transform="scale(0.015625)"/>
      </defs>
      <use xlink:href="#Georgia-Bold-41"/>
      <use xlink:href="#Georgia-Bold-44" transform="translate(75.830078 0)"/>
      <use xlink:href="#Georgia-Bold-41" transform="translate(159.228516 0)"/>
      <use xlink:href="#Georgia-Bold-54" transform="translate(235.058594 0)"/>
      <use xlink:href="#Georgia-Bold-20" transform="translate(303.466797 0)"/>
      <use xlink:href="#Georgia-Bold-28" transform="translate(328.857422 0)"/>
      <use xlink:href="#Georgia-Bold-52" transform="translate(373.535156 0)"/>
      <use xlink:href="#Georgia-Bold-29" transform="translate(453.271484 0)"/>
     </g>
    </g>
   </g>
   <g id="patch_3">
    <path d="M 318.243333 252.207227 
L 438.354167 252.207227 
L 438.354167 142.207486 
L 318.243333 142.207486 
L 318.243333 252.207227 
z
" clip-path="url(#pef7ff0bc13)" style="fill: #7a1111; opacity: 0.4; stroke: #2a2a2a; stroke-linejoin: miter"/>
   </g>
   <g id="line2d_12">
    <path d="M 378.29875 252.207227 
L 378.29875 370.51054 
" clip-path="url(#pef7ff0bc13)" style="fill: none; stroke: #888888; stroke-opacity: 0.8"/>
   </g>
   <g id="line2d_13">
    <path d="M 378.29875 142.207486 
L 378.29875 66.893053 
" clip-path="url(#pef7ff0bc13)" style="fill: none; stroke: #888888; stroke-opacity: 0.8"/>
   </g>
   <g id="line2d_14">
    <path d="M 348.271042 370.51054 
L 408.326458 370.51054 
" clip-path="url(#pef7ff0bc13)" style="fill: none; stroke: #888888; stroke-opacity: 0.8; stroke-linecap: square"/>
   </g>
   <g id="line2d_15">
    <path d="M 348.271042 66.893053 
L 408.326458 66.893053 
" clip-path="url(#pef7ff0bc13)" style="fill: none; stroke: #888888; stroke-opacity: 0.8; stroke-linecap: square"/>
   </g>
   <g id="patch_4">
    <path d="M 536.626667 251.665442 
L 656.7375 251.665442 
L 656.7375 221.596404 
L 536.626667 221.596404 
L 536.626667 251.665442 
z
" clip-path="url(#pef7ff0bc13)" style="fill: #536437; opacity: 0.4; stroke: #2a2a2a; stroke-linejoin: miter"/>
   </g>
   <g id="line2d_16">
    <path d="M 596.682083 251.665442 
L 596.682083 291.748423 
" clip-path="url(#pef7ff0bc13)" style="fill: none; stroke: #888888; stroke-opacity: 0.8"/>
   </g>
   <g id="line2d_17">
    <path d="M 596.682083 221.596404 
L 596.682083 221.534405 
" clip-path="url(#pef7ff0bc13)" style="fill: none; stroke: #888888; stroke-opacity: 0.8"/>
   </g>
   <g id="line2d_18">
    <path d="M 566.654375 291.748423 
L 626.709792 291.748423 
" clip-path="url(#pef7ff0bc13)" style="fill: none; stroke: #888888; stroke-opacity: 0.8; stroke-linecap: square"/>
   </g>
   <g id="line2d_19">
    <path d="M 566.654375 221.534405 
L 626.709792 221.534405 
" clip-path="url(#pef7ff0bc13)" style="fill: none; stroke: #888888; stroke-opacity: 0.8; stroke-linecap: square"/>
   </g>
   <g id="patch_5">
    <path d="M 99.86 165.498864 
L 219.970833 165.498864 
L 219.970833 118.799371 
L 99.86 118.799371 
L 99.86 165.498864 
z
" clip-path="url(#pef7ff0bc13)" style="fill: #11117a; opacity: 0.4; stroke: #2a2a2a; stroke-linejoin: miter"/>
   </g>
   <g id="line2d_20">
    <path d="M 159.915417 165.498864 
L 159.915417 184.528038 
" clip-path="url(#pef7ff0bc13)" style="fill: none; stroke: #888888; stroke-opacity: 0.8"/>
   </g>
   <g id="line2d_21">
    <path d="M 159.915417 118.799371 
L 159.915417 61.246335 
" clip-path="url(#pef7ff0bc13)" style="fill: none; stroke: #888888; stroke-opacity: 0.8"/>
   </g>
   <g id="line2d_22">
    <path d="M 129.887708 184.528038 
L 189.943125 184.528038 
" clip-path="url(#pef7ff0bc13)" style="fill: none; stroke: #888888; stroke-opacity: 0.8; stroke-linecap: square"/>
   </g>
   <g id="line2d_23">
    <path d="M 129.887708 61.246335 
L 189.943125 61.246335 
" clip-path="url(#pef7ff0bc13)" style="fill: none; stroke: #888888; stroke-opacity: 0.8; stroke-linecap: square"/>
   </g>
   <g id="line2d_24">
    <path d="M 50.72375 180.983715 
L 705.87375 180.983715 
" clip-path="url(#pef7ff0bc13)" style="fill: none; stroke-dasharray: 3.7,1.6; stroke-dashoffset: 0; stroke: #808080; stroke-opacity: 0.5"/>
   </g>
   <g id="line2d_25">
    <path d="M 318.243333 178.072609 
L 438.354167 178.072609 
" clip-path="url(#pef7ff0bc13)" style="fill: none; stroke: #ffffff; stroke-width: 1.5"/>
   </g>
   <g id="line2d_26">
    <path d="M 536.626667 236.850348 
L 656.7375 236.850348 
" clip-path="url(#pef7ff0bc13)" style="fill: none; stroke: #ffffff; stroke-width: 1.5"/>
   </g>
   <g id="line2d_27">
    <path d="M 99.86 132.134804 
L 219.970833 132.134804 
" clip-path="url(#pef7ff0bc13)" style="fill: none; stroke: #ffffff; stroke-width: 1.5"/>
   </g>
   <g id="patch_6">
    <path d="M 50.72375 385.97375 
L 50.72375 45.783125 
" style="fill: none; stroke: #666666; stroke-width: 0.8; stroke-linejoin: miter; stroke-linecap: square"/>
   </g>
   <g id="patch_7">
    <path d="M 50.72375 385.97375 
L 705.87375 385.97375 
" style="fill: none; stroke: #666666; stroke-width: 0.8; stroke-linejoin: miter; stroke-linecap: square"/>
   </g>
   <g id="text_10">
    <!-- [Box: All players | Diamonds: IGLs] -->
    <g style="fill: #bbbbbb" transform="translate(289.346563 36.593687) scale(0.11 -0.11)">
     <defs>
      <path id="Georgia-Italic-5b" d="M 2900 4747 
L 2838 4478 
L 1728 4478 
L 534 -697 
L 1644 -697 
L 1581 -969 
L -84 -969 
L 1234 4747 
L 2900 4747 
z
" transform="scale(0.015625)"/>
      <path id="Georgia-Italic-42" d="M 3691 4259 
Q 3863 4166 3959 4011 
Q 4056 3856 4056 3650 
Q 4056 3366 3943 3150 
Q 3831 2934 3650 2788 
Q 3466 2638 3233 2539 
Q 3000 2441 2763 2394 
L 2763 2366 
Q 2944 2344 3137 2280 
Q 3331 2216 3488 2109 
Q 3653 2000 3758 1826 
Q 3863 1653 3863 1416 
Q 3863 1063 3698 792 
Q 3534 522 3284 353 
Q 3016 172 2708 86 
Q 2400 0 2075 0 
L -91 0 
L -41 206 
Q 34 213 184 233 
Q 334 253 400 281 
Q 509 325 567 401 
Q 625 478 650 588 
L 1391 3806 
Q 1397 3838 1401 3867 
Q 1406 3897 1406 3928 
Q 1406 3994 1379 4042 
Q 1353 4091 1288 4125 
Q 1197 4175 1095 4198 
Q 994 4222 906 4228 
L 956 4434 
L 2913 4434 
Q 3134 4434 3326 4395 
Q 3519 4356 3691 4259 
z
M 3028 2819 
Q 3175 2991 3239 3183 
Q 3303 3375 3303 3619 
Q 3303 3784 3243 3900 
Q 3184 4016 3081 4084 
Q 2978 4150 2853 4176 
Q 2728 4203 2591 4203 
Q 2488 4203 2361 4198 
Q 2234 4194 2147 4191 
L 1750 2466 
L 2141 2466 
Q 2447 2466 2670 2562 
Q 2894 2659 3028 2819 
z
M 2825 675 
Q 2959 859 3028 1078 
Q 3097 1297 3097 1509 
Q 3097 1844 2872 2034 
Q 2647 2225 2241 2225 
Q 2044 2225 1903 2220 
Q 1763 2216 1691 2213 
L 1338 684 
Q 1328 641 1323 603 
Q 1319 566 1319 531 
Q 1319 369 1484 297 
Q 1650 225 1906 225 
Q 2222 225 2455 354 
Q 2688 484 2825 675 
z
" transform="scale(0.015625)"/>
      <path id="Georgia-Italic-6f" d="M 3228 1925 
Q 3228 1556 3103 1187 
Q 2978 819 2741 541 
Q 2500 253 2161 79 
Q 1822 -94 1375 -94 
Q 856 -94 532 240 
Q 209 575 209 1141 
Q 209 1556 346 1915 
Q 484 2275 716 2547 
Q 950 2819 1295 2986 
Q 1641 3153 2044 3153 
Q 2600 3153 2914 2814 
Q 3228 2475 3228 1925 
z
M 2591 2044 
Q 2591 2488 2433 2709 
Q 2275 2931 1978 2931 
Q 1719 2931 1489 2772 
Q 1259 2613 1094 2253 
Q 966 1981 906 1648 
Q 847 1316 847 1034 
Q 847 588 1001 358 
Q 1156 128 1469 128 
Q 1747 128 1962 303 
Q 2178 478 2313 747 
Q 2447 1009 2519 1348 
Q 2591 1688 2591 2044 
z
" transform="scale(0.015625)"/>
      <path id="Georgia-Italic-78" d="M 3341 2809 
Q 3338 2628 3208 2542 
Q 3078 2456 2925 2456 
Q 2831 2456 2712 2489 
Q 2594 2522 2525 2544 
Q 2384 2419 2198 2175 
Q 2013 1931 1847 1638 
Q 1922 1341 1981 1130 
Q 2041 919 2109 706 
Q 2169 516 2295 402 
Q 2422 288 2628 288 
Q 2703 288 2834 308 
Q 2966 328 3038 353 
L 2981 147 
Q 2681 22 2529 -15 
Q 2378 -53 2203 -53 
Q 1984 -53 1842 47 
Q 1700 147 1613 459 
Q 1550 688 1511 842 
Q 1472 997 1434 1150 
Q 1291 934 1197 782 
Q 1103 631 884 366 
Q 694 134 534 37 
Q 375 -59 209 -59 
Q 63 -59 -32 27 
Q -128 113 -128 266 
Q -128 413 -15 517 
Q 97 622 294 622 
Q 394 622 489 586 
Q 584 550 688 519 
Q 806 631 1001 868 
Q 1197 1106 1366 1409 
Q 1306 1631 1236 1897 
Q 1166 2163 1103 2363 
Q 1022 2616 915 2687 
Q 809 2759 644 2759 
Q 553 2759 451 2734 
Q 350 2709 263 2684 
L 322 2891 
Q 563 2991 755 3055 
Q 947 3119 1016 3119 
Q 1231 3119 1373 3014 
Q 1516 2909 1600 2609 
Q 1697 2263 1714 2186 
Q 1731 2109 1781 1884 
Q 1931 2116 2025 2275 
Q 2119 2434 2331 2697 
Q 2528 2944 2695 3036 
Q 2863 3128 3016 3128 
Q 3153 3128 3248 3039 
Q 3344 2950 3341 2809 
z
" transform="scale(0.015625)"/>
      <path id="Georgia-Italic-3a" d="M 1913 2666 
Q 1913 2491 1786 2366 
Q 1659 2241 1484 2241 
Q 1309 2241 1182 2366 
Q 1056 2491 1056 2666 
Q 1056 2841 1181 2967 
Q 1306 3094 1484 3094 
Q 1663 3094 1788 2967 
Q 1913 2841 1913 2666 
z
M 1397 359 
Q 1397 184 1270 60 
Q 1144 -63 969 -63 
Q 794 -63 667 60 
Q 541 184 541 359 
Q 541 534 667 661 
Q 794 788 969 788 
Q 1144 788 1270 661 
Q 1397 534 1397 359 
z
" transform="scale(0.015625)"/>
      <path id="Georgia-Italic-20" transform="scale(0.015625)"/>
      <path id="Georgia-Italic-41" d="M 2734 1800 
L 2456 3531 
L 1394 1800 
L 2734 1800 
z
M 2256 0 
L 2303 206 
Q 2400 216 2529 233 
Q 2659 250 2731 272 
Q 2828 303 2876 337 
Q 2925 372 2925 444 
Q 2925 469 2887 750 
Q 2850 1031 2781 1541 
L 1225 1541 
Q 1122 1378 1006 1164 
Q 891 950 828 838 
Q 772 738 720 614 
Q 669 491 669 450 
Q 669 347 834 284 
Q 1000 222 1250 206 
L 1203 0 
L -500 0 
L -453 206 
Q -372 213 -242 242 
Q -113 272 -25 322 
Q 84 384 186 476 
Q 288 569 403 753 
Q 944 1609 1589 2659 
Q 2234 3709 2725 4497 
L 2975 4497 
L 3566 656 
Q 3584 541 3628 461 
Q 3672 381 3759 313 
Q 3822 269 3928 239 
Q 4034 209 4116 206 
L 4069 0 
L 2256 0 
z
" transform="scale(0.015625)"/>
      <path id="Georgia-Italic-6c" d="M 1875 4791 
L 1003 1028 
Q 975 909 950 790 
Q 925 672 925 597 
Q 925 419 1004 353 
Q 1084 288 1263 288 
Q 1325 288 1448 303 
Q 1572 319 1634 341 
L 1588 141 
Q 1306 28 1154 -19 
Q 1003 -66 813 -66 
Q 563 -66 433 64 
Q 303 194 303 384 
Q 303 456 317 534 
Q 331 613 356 731 
L 1116 4022 
Q 1138 4119 1145 4156 
Q 1153 4194 1153 4250 
Q 1153 4363 1115 4423 
Q 1078 4484 1009 4516 
Q 944 4544 844 4553 
Q 744 4563 641 4575 
L 684 4766 
L 1844 4838 
L 1875 4791 
z
" transform="scale(0.015625)"/>
      <path id="Georgia-Italic-70" d="M 3481 1959 
Q 3481 1541 3334 1166 
Q 3188 791 2944 516 
Q 2672 213 2355 66 
Q 2038 -81 1703 -81 
Q 1434 -81 1262 -15 
Q 1091 50 956 147 
L 775 -672 
Q 756 -750 745 -819 
Q 734 -888 734 -928 
Q 734 -1013 795 -1063 
Q 856 -1113 934 -1134 
Q 1013 -1159 1109 -1171 
Q 1206 -1184 1284 -1191 
L 1241 -1388 
L -481 -1388 
L -438 -1191 
Q -338 -1184 -250 -1175 
Q -163 -1166 -84 -1144 
Q 13 -1116 70 -1039 
Q 128 -963 153 -850 
L 806 2025 
Q 831 2144 853 2264 
Q 875 2384 875 2472 
Q 875 2647 820 2706 
Q 766 2766 584 2766 
Q 516 2766 409 2739 
Q 303 2713 244 2697 
L 291 2897 
Q 528 3003 718 3061 
Q 909 3119 1044 3119 
Q 1263 3119 1375 3008 
Q 1488 2897 1516 2700 
L 1541 2700 
Q 1753 2897 1995 3025 
Q 2238 3153 2478 3153 
Q 2953 3153 3217 2829 
Q 3481 2506 3481 1959 
z
M 2506 669 
Q 2666 925 2752 1251 
Q 2838 1578 2838 1944 
Q 2838 2109 2808 2276 
Q 2778 2444 2713 2553 
Q 2644 2675 2525 2742 
Q 2406 2809 2213 2809 
Q 2069 2809 1895 2721 
Q 1722 2634 1472 2394 
L 1072 622 
Q 1094 444 1264 289 
Q 1434 134 1675 134 
Q 1922 134 2137 278 
Q 2353 422 2506 669 
z
" transform="scale(0.015625)"/>
      <path id="Georgia-Italic-61" d="M 2175 413 
L 2153 413 
Q 2084 356 1989 270 
Q 1894 184 1766 106 
Q 1644 28 1500 -30 
Q 1356 -88 1188 -88 
Q 734 -88 476 237 
Q 219 563 219 1125 
Q 219 1513 362 1878 
Q 506 2244 759 2534 
Q 1000 2813 1331 2983 
Q 1663 3153 2013 3153 
Q 2234 3153 2436 3093 
Q 2638 3034 2753 2959 
L 3325 3106 
L 3363 3059 
L 2888 1044 
Q 2863 947 2836 808 
Q 2809 669 2809 603 
Q 2809 425 2884 362 
Q 2959 300 3138 300 
Q 3197 300 3306 319 
Q 3416 338 3475 359 
L 3428 159 
Q 3147 47 3009 -3 
Q 2872 -53 2675 -53 
Q 2450 -53 2319 78 
Q 2188 209 2175 413 
z
M 2622 2388 
Q 2622 2491 2600 2584 
Q 2578 2678 2509 2759 
Q 2447 2838 2337 2884 
Q 2228 2931 2063 2931 
Q 1834 2931 1618 2781 
Q 1403 2631 1231 2378 
Q 1069 2141 966 1803 
Q 863 1466 863 1119 
Q 863 928 884 781 
Q 906 634 969 513 
Q 1028 394 1140 328 
Q 1253 263 1425 263 
Q 1600 263 1792 361 
Q 1984 459 2225 706 
L 2622 2388 
z
" transform="scale(0.015625)"/>
      <path id="Georgia-Italic-79" d="M 2241 453 
L 2222 453 
Q 1934 213 1675 75 
Q 1416 -63 1084 -63 
Q 784 -63 609 110 
Q 434 284 434 566 
Q 434 641 446 744 
Q 459 847 506 1050 
L 750 2025 
Q 784 2166 803 2270 
Q 822 2375 822 2472 
Q 822 2647 764 2705 
Q 706 2763 528 2763 
Q 459 2763 353 2738 
Q 247 2713 188 2697 
L 234 2897 
Q 478 3006 664 3062 
Q 850 3119 963 3119 
Q 1213 3119 1333 3006 
Q 1453 2894 1453 2669 
Q 1453 2613 1440 2516 
Q 1428 2419 1403 2322 
L 1119 1181 
Q 1088 1050 1066 936 
Q 1044 822 1044 763 
Q 1044 553 1145 431 
Q 1247 309 1444 309 
Q 1672 309 1889 421 
Q 2106 534 2297 731 
L 2816 3069 
L 3356 3106 
L 3394 3059 
L 2856 613 
Q 2738 75 2553 -306 
Q 2369 -688 2122 -922 
Q 1863 -1169 1563 -1278 
Q 1263 -1388 878 -1388 
Q 613 -1388 456 -1350 
Q 300 -1313 209 -1247 
Q 119 -1184 87 -1106 
Q 56 -1028 56 -950 
Q 56 -816 137 -712 
Q 219 -609 372 -609 
Q 488 -609 569 -675 
Q 650 -741 700 -819 
Q 756 -903 803 -1009 
Q 850 -1116 878 -1178 
L 953 -1178 
Q 1131 -1178 1329 -1090 
Q 1528 -1003 1694 -819 
Q 1872 -619 2014 -303 
Q 2156 13 2241 453 
z
" transform="scale(0.015625)"/>
      <path id="Georgia-Italic-65" d="M 2894 2503 
Q 2894 2172 2686 1934 
Q 2478 1697 2081 1556 
Q 1791 1450 1494 1384 
Q 1197 1319 838 1275 
Q 838 781 1020 520 
Q 1203 259 1556 259 
Q 1869 259 2108 415 
Q 2347 572 2578 881 
L 2756 750 
Q 2506 369 2131 140 
Q 1756 -88 1353 -88 
Q 800 -88 508 221 
Q 216 531 216 1100 
Q 216 1494 339 1851 
Q 463 2209 700 2506 
Q 931 2797 1267 2975 
Q 1603 3153 2009 3153 
Q 2459 3153 2676 2970 
Q 2894 2788 2894 2503 
z
M 2319 2581 
Q 2319 2703 2284 2773 
Q 2250 2844 2197 2878 
Q 2141 2916 2078 2925 
Q 2016 2934 1950 2934 
Q 1575 2934 1258 2521 
Q 941 2109 856 1494 
Q 1075 1525 1350 1583 
Q 1625 1641 1806 1734 
Q 2066 1869 2192 2080 
Q 2319 2291 2319 2581 
z
" transform="scale(0.015625)"/>
      <path id="Georgia-Italic-72" d="M 2981 2644 
Q 2981 2556 2956 2451 
Q 2931 2347 2884 2278 
Q 2828 2194 2761 2148 
Q 2694 2103 2569 2103 
Q 2400 2103 2315 2187 
Q 2231 2272 2231 2375 
Q 2231 2472 2278 2592 
Q 2325 2713 2375 2831 
Q 2338 2831 2252 2811 
Q 2166 2791 2044 2731 
Q 1922 2672 1767 2553 
Q 1613 2434 1438 2238 
L 934 0 
L 353 0 
L 809 2025 
Q 825 2100 854 2250 
Q 884 2400 884 2472 
Q 884 2647 825 2706 
Q 766 2766 588 2766 
Q 519 2766 412 2742 
Q 306 2719 247 2703 
L 294 2903 
Q 538 3013 725 3066 
Q 913 3119 1047 3119 
Q 1297 3119 1403 2983 
Q 1509 2847 1509 2575 
L 1528 2575 
Q 1900 2897 2092 3025 
Q 2284 3153 2494 3153 
Q 2594 3153 2687 3128 
Q 2781 3103 2847 3044 
Q 2916 2978 2948 2892 
Q 2981 2806 2981 2644 
z
" transform="scale(0.015625)"/>
      <path id="Georgia-Italic-73" d="M 1131 -91 
Q 669 -91 361 73 
Q 53 238 53 503 
Q 53 628 143 737 
Q 234 847 366 847 
Q 491 847 567 789 
Q 644 731 688 653 
Q 734 572 770 459 
Q 806 347 831 275 
Q 878 222 961 176 
Q 1044 131 1200 131 
Q 1538 131 1711 300 
Q 1884 469 1884 756 
Q 1884 969 1721 1095 
Q 1559 1222 1238 1328 
Q 1122 1366 965 1442 
Q 809 1519 716 1606 
Q 603 1706 534 1843 
Q 466 1981 466 2169 
Q 466 2569 823 2861 
Q 1181 3153 1703 3153 
Q 1825 3153 1965 3140 
Q 2106 3128 2275 3072 
Q 2422 3022 2525 2923 
Q 2628 2825 2628 2669 
Q 2628 2541 2542 2436 
Q 2456 2331 2316 2331 
Q 2200 2331 2125 2381 
Q 2050 2431 2000 2516 
Q 1950 2600 1919 2697 
Q 1888 2794 1850 2888 
Q 1791 2913 1744 2922 
Q 1697 2931 1619 2931 
Q 1313 2931 1155 2767 
Q 997 2603 997 2378 
Q 997 2159 1139 2048 
Q 1281 1938 1609 1819 
Q 2034 1666 2226 1469 
Q 2419 1272 2419 981 
Q 2419 506 2053 207 
Q 1688 -91 1131 -91 
z
" transform="scale(0.015625)"/>
      <path id="Georgia-Italic-7c" d="M 1484 -1325 
L 1088 -1325 
L 1088 4759 
L 1484 4759 
L 1484 -1325 
z
" transform="scale(0.015625)"/>
      <path id="Georgia-Italic-44" d="M 4734 2725 
Q 4734 2091 4487 1573 
Q 4241 1056 3841 716 
Q 3425 363 2914 181 
Q 2403 0 1844 0 
L -91 0 
L -44 206 
Q 38 206 186 222 
Q 334 238 397 263 
Q 509 306 567 386 
Q 625 466 647 575 
L 1384 3766 
Q 1394 3803 1401 3848 
Q 1409 3894 1409 3922 
Q 1409 3991 1386 4042 
Q 1363 4094 1291 4128 
Q 1209 4166 1090 4192 
Q 972 4219 909 4228 
L 956 4434 
L 2834 4434 
Q 3116 4434 3447 4354 
Q 3778 4275 4066 4081 
Q 4369 3878 4551 3539 
Q 4734 3200 4734 2725 
z
M 4000 2722 
Q 4000 3422 3625 3809 
Q 3250 4197 2628 4197 
Q 2500 4197 2362 4192 
Q 2225 4188 2147 4184 
L 1353 744 
Q 1344 700 1337 659 
Q 1331 619 1331 581 
Q 1331 394 1487 317 
Q 1644 241 2000 241 
Q 2466 241 2848 453 
Q 3231 666 3484 1019 
Q 3744 1384 3872 1815 
Q 4000 2247 4000 2722 
z
" transform="scale(0.015625)"/>
      <path id="Georgia-Italic-69" d="M 1722 341 
L 1675 141 
Q 1388 25 1216 -20 
Q 1044 -66 922 -66 
Q 672 -66 547 64 
Q 422 194 422 384 
Q 422 456 434 534 
Q 447 613 475 731 
L 806 2059 
Q 831 2169 854 2294 
Q 878 2419 878 2506 
Q 878 2681 820 2739 
Q 763 2797 584 2797 
Q 516 2797 402 2775 
Q 288 2753 228 2738 
L 275 2938 
Q 519 3047 712 3100 
Q 906 3153 1019 3153 
Q 1275 3153 1390 3031 
Q 1506 2909 1506 2703 
Q 1506 2647 1493 2550 
Q 1481 2453 1456 2356 
L 1122 1028 
Q 1091 906 1067 789 
Q 1044 672 1044 597 
Q 1044 419 1123 353 
Q 1203 288 1381 288 
Q 1441 288 1552 303 
Q 1663 319 1722 341 
z
M 1944 4334 
Q 1944 4156 1828 4023 
Q 1713 3891 1541 3891 
Q 1381 3891 1265 4017 
Q 1150 4144 1150 4306 
Q 1150 4478 1265 4606 
Q 1381 4734 1541 4734 
Q 1719 4734 1831 4614 
Q 1944 4494 1944 4334 
z
" transform="scale(0.015625)"/>
      <path id="Georgia-Italic-6d" d="M 5447 353 
L 5400 153 
Q 5113 38 4941 -7 
Q 4769 -53 4647 -53 
Q 4397 -53 4272 76 
Q 4147 206 4147 397 
Q 4147 466 4159 548 
Q 4172 631 4200 744 
L 4506 1909 
Q 4541 2044 4561 2153 
Q 4581 2263 4581 2328 
Q 4581 2538 4490 2659 
Q 4400 2781 4203 2781 
Q 3994 2781 3792 2682 
Q 3591 2584 3338 2316 
L 2794 0 
L 2213 0 
L 2703 2088 
Q 2719 2156 2733 2232 
Q 2747 2309 2747 2347 
Q 2747 2550 2645 2665 
Q 2544 2781 2347 2781 
Q 2169 2781 1953 2692 
Q 1738 2603 1453 2294 
L 925 0 
L 344 0 
L 809 2025 
Q 834 2134 857 2259 
Q 881 2384 881 2472 
Q 881 2653 822 2711 
Q 763 2769 591 2769 
Q 522 2769 414 2744 
Q 306 2719 247 2703 
L 294 2903 
Q 538 3013 725 3066 
Q 913 3119 1047 3119 
Q 1297 3119 1401 2983 
Q 1506 2847 1513 2613 
L 1531 2613 
Q 1900 2903 2137 3028 
Q 2375 3153 2703 3153 
Q 2981 3153 3154 2992 
Q 3328 2831 3350 2588 
L 3363 2588 
Q 3697 2866 3958 3009 
Q 4219 3153 4566 3153 
Q 4866 3153 5027 2979 
Q 5188 2806 5188 2525 
Q 5188 2469 5170 2325 
Q 5153 2181 5116 2041 
L 4853 1038 
Q 4825 938 4800 808 
Q 4775 678 4775 606 
Q 4775 428 4850 364 
Q 4925 300 5103 300 
Q 5163 300 5275 315 
Q 5388 331 5447 353 
z
" transform="scale(0.015625)"/>
      <path id="Georgia-Italic-6e" d="M 3591 363 
L 3544 163 
Q 3263 50 3106 -1 
Q 2950 -53 2791 -53 
Q 2541 -53 2416 76 
Q 2291 206 2291 397 
Q 2291 466 2303 548 
Q 2316 631 2344 744 
L 2650 1909 
Q 2684 2044 2704 2153 
Q 2725 2263 2725 2328 
Q 2725 2538 2625 2659 
Q 2525 2781 2328 2781 
Q 2138 2781 1900 2656 
Q 1663 2531 1453 2294 
L 925 0 
L 344 0 
L 809 2025 
Q 825 2100 854 2242 
Q 884 2384 884 2472 
Q 884 2647 825 2706 
Q 766 2766 588 2766 
Q 519 2766 412 2742 
Q 306 2719 247 2703 
L 294 2903 
Q 538 3013 725 3066 
Q 913 3119 1047 3119 
Q 1294 3119 1400 2984 
Q 1506 2850 1513 2613 
L 1531 2613 
Q 1875 2888 2125 3020 
Q 2375 3153 2694 3153 
Q 2994 3153 3162 2979 
Q 3331 2806 3331 2525 
Q 3331 2469 3314 2325 
Q 3297 2181 3259 2041 
L 2997 1038 
Q 2969 938 2942 808 
Q 2916 678 2916 606 
Q 2916 428 2994 364 
Q 3072 300 3250 300 
Q 3309 300 3420 320 
Q 3531 341 3591 363 
z
" transform="scale(0.015625)"/>
      <path id="Georgia-Italic-64" d="M 2203 428 
L 2181 428 
Q 2113 369 2003 273 
Q 1894 178 1775 106 
Q 1625 13 1498 -37 
Q 1372 -88 1188 -88 
Q 734 -88 476 239 
Q 219 566 219 1128 
Q 219 1522 358 1887 
Q 497 2253 738 2538 
Q 972 2813 1301 2983 
Q 1631 3153 1991 3153 
Q 2206 3153 2418 3097 
Q 2631 3041 2769 2959 
L 3013 4022 
Q 3031 4106 3039 4153 
Q 3047 4200 3047 4256 
Q 3047 4369 3001 4428 
Q 2956 4488 2875 4516 
Q 2800 4544 2669 4553 
Q 2538 4563 2431 4575 
L 2475 4766 
L 3741 4838 
L 3772 4791 
L 2906 1044 
Q 2881 941 2854 808 
Q 2828 675 2828 606 
Q 2828 428 2903 364 
Q 2978 300 3156 300 
Q 3216 300 3325 319 
Q 3434 338 3494 359 
L 3447 159 
Q 3184 41 3012 -6 
Q 2841 -53 2694 -53 
Q 2469 -53 2336 64 
Q 2203 181 2203 428 
z
M 2644 2419 
Q 2638 2509 2597 2595 
Q 2556 2681 2494 2750 
Q 2422 2828 2308 2879 
Q 2194 2931 2038 2931 
Q 1797 2931 1583 2781 
Q 1369 2631 1206 2381 
Q 1050 2141 956 1802 
Q 863 1463 863 1122 
Q 863 931 884 784 
Q 906 638 969 513 
Q 1028 397 1137 330 
Q 1247 263 1428 263 
Q 1600 263 1801 366 
Q 2003 469 2250 725 
L 2644 2419 
z
" transform="scale(0.015625)"/>
      <path id="Georgia-Italic-49" d="M 2881 4434 
L 2834 4228 
Q 2738 4225 2581 4200 
Q 2425 4175 2350 4153 
Q 2219 4113 2162 4028 
Q 2106 3944 2081 3844 
L 1331 603 
Q 1325 581 1322 553 
Q 1319 525 1319 503 
Q 1319 431 1350 381 
Q 1381 331 1463 294 
Q 1509 272 1668 242 
Q 1828 213 1906 206 
L 1859 0 
L -138 0 
L -91 206 
Q -3 213 159 225 
Q 322 238 391 263 
Q 513 306 575 382 
Q 638 459 659 569 
L 1406 3813 
Q 1413 3841 1416 3869 
Q 1419 3897 1419 3925 
Q 1419 3988 1392 4034 
Q 1366 4081 1281 4119 
Q 1197 4156 1051 4189 
Q 906 4222 838 4228 
L 884 4434 
L 2881 4434 
z
" transform="scale(0.015625)"/>
      <path id="Georgia-Italic-47" d="M 2084 -103 
Q 1709 -103 1387 15 
Q 1066 134 825 366 
Q 584 597 448 928 
Q 313 1259 313 1688 
Q 313 2291 523 2808 
Q 734 3325 1100 3713 
Q 1459 4097 1950 4317 
Q 2441 4538 2984 4538 
Q 3416 4538 3723 4439 
Q 4031 4341 4206 4222 
L 4381 4434 
L 4631 4434 
L 4303 2884 
L 4047 2884 
Q 4041 3144 4003 3394 
Q 3966 3644 3847 3844 
Q 3725 4047 3512 4165 
Q 3300 4284 2919 4284 
Q 2534 4284 2192 4086 
Q 1850 3888 1591 3528 
Q 1338 3181 1192 2693 
Q 1047 2206 1047 1650 
Q 1047 956 1375 556 
Q 1703 156 2281 156 
Q 2556 156 2759 237 
Q 2963 319 3081 419 
Q 3125 547 3164 689 
Q 3203 831 3250 1038 
L 3309 1306 
Q 3316 1341 3323 1387 
Q 3331 1434 3331 1475 
Q 3331 1553 3311 1603 
Q 3291 1653 3213 1688 
Q 3122 1734 2948 1757 
Q 2775 1781 2681 1788 
L 2728 2000 
L 4675 2000 
L 4628 1788 
Q 4547 1778 4417 1758 
Q 4288 1738 4200 1700 
Q 4088 1650 4033 1565 
Q 3978 1481 3950 1366 
L 3869 1006 
Q 3797 709 3769 562 
Q 3741 416 3719 284 
Q 3513 200 3352 137 
Q 3191 75 2950 16 
Q 2731 -41 2529 -72 
Q 2328 -103 2084 -103 
z
" transform="scale(0.015625)"/>
      <path id="Georgia-Italic-4c" d="M 3784 1319 
L 3388 0 
L -78 0 
L -31 206 
Q 47 213 190 228 
Q 334 244 400 269 
Q 513 313 570 395 
Q 628 478 650 588 
L 1391 3794 
Q 1397 3822 1401 3851 
Q 1406 3881 1406 3909 
Q 1406 3972 1379 4023 
Q 1353 4075 1284 4113 
Q 1222 4150 1101 4184 
Q 981 4219 897 4228 
L 944 4434 
L 2816 4434 
L 2769 4228 
Q 2697 4225 2561 4201 
Q 2425 4178 2322 4147 
Q 2200 4106 2144 4015 
Q 2088 3925 2063 3825 
L 1369 816 
Q 1344 706 1330 623 
Q 1316 541 1316 488 
Q 1316 316 1455 272 
Q 1594 228 1963 228 
Q 2169 228 2433 264 
Q 2697 300 2800 394 
Q 2959 534 3201 829 
Q 3444 1125 3563 1319 
L 3784 1319 
z
" transform="scale(0.015625)"/>
      <path id="Georgia-Italic-5d" d="M 2584 4747 
L 1266 -969 
L -400 -969 
L -338 -697 
L 772 -697 
L 1966 4478 
L 856 4478 
L 919 4747 
L 2584 4747 
z
" transform="scale(0.015625)"/>
     </defs>
     <use xlink:href="#Georgia-Italic-5b"/>
     <use xlink:href="#Georgia-Italic-42" transform="translate(37.5 0)"/>
     <use xlink:href="#Georgia-Italic-6f" transform="translate(102.880859 0)"/>
     <use xlink:href="#Georgia-Italic-78" transform="translate(156.591797 0)"/>
     <use xlink:href="#Georgia-Italic-3a" transform="translate(206.689453 0)"/>
     <use xlink:href="#Georgia-Italic-20" transform="translate(245.068359 0)"/>
     <use xlink:href="#Georgia-Italic-41" transform="translate(269.189453 0)"/>
     <use xlink:href="#Georgia-Italic-6c" transform="translate(336.279297 0)"/>
     <use xlink:href="#Georgia-Italic-6c" transform="translate(364.794922 0)"/>
     <use xlink:href="#Georgia-Italic-20" transform="translate(393.310547 0)"/>
     <use xlink:href="#Georgia-Italic-70" transform="translate(417.431641 0)"/>
     <use xlink:href="#Georgia-Italic-6c" transform="translate(475.244141 0)"/>
     <use xlink:href="#Georgia-Italic-61" transform="translate(503.759766 0)"/>
     <use xlink:href="#Georgia-Italic-79" transform="translate(561.035156 0)"/>
     <use xlink:href="#Georgia-Italic-65" transform="translate(616.992188 0)"/>
     <use xlink:href="#Georgia-Italic-72" transform="translate(664.160156 0)"/>
     <use xlink:href="#Georgia-Italic-73" transform="translate(710.302734 0)"/>
     <use xlink:href="#Georgia-Italic-20" transform="translate(753.417969 0)"/>
     <use xlink:href="#Georgia-Italic-7c" transform="translate(777.539062 0)"/>
     <use xlink:href="#Georgia-Italic-20" transform="translate(815.039062 0)"/>
     <use xlink:href="#Georgia-Italic-44" transform="translate(839.160156 0)"/>
     <use xlink:href="#Georgia-Italic-69" transform="translate(914.0625 0)"/>
     <use xlink:href="#Georgia-Italic-61" transform="translate(943.798828 0)"/>
     <use xlink:href="#Georgia-Italic-6d" transform="translate(1001.074219 0)"/>
     <use xlink:href="#Georgia-Italic-6f" transform="translate(1089.013672 0)"/>
     <use xlink:href="#Georgia-Italic-6e" transform="translate(1142.724609 0)"/>
     <use xlink:href="#Georgia-Italic-64" transform="translate(1201.708984 0)"/>
     <use xlink:href="#Georgia-Italic-73" transform="translate(1259.228516 0)"/>
     <use xlink:href="#Georgia-Italic-3a" transform="translate(1302.34375 0)"/>
     <use xlink:href="#Georgia-Italic-20" transform="translate(1340.722656 0)"/>
     <use xlink:href="#Georgia-Italic-49" transform="translate(1364.84375 0)"/>
     <use xlink:href="#Georgia-Italic-47" transform="translate(1403.808594 0)"/>
     <use xlink:href="#Georgia-Italic-4c" transform="translate(1476.318359 0)"/>
     <use xlink:href="#Georgia-Italic-73" transform="translate(1536.669922 0)"/>
     <use xlink:href="#Georgia-Italic-5d" transform="translate(1579.785156 0)"/>
    </g>
   </g>
   <g id="text_11">
    <!-- IGL placement on ADAT (R) (CT-side) -->
    <g style="fill: #e6e6e6" transform="translate(242.445156 17.783125) scale(0.14 -0.14)">
     <defs>
      <path id="Georgia-Bold-49" d="M 2656 0 
L 197 0 
L 197 244 
Q 281 250 445 262 
Q 609 275 672 300 
Q 788 347 830 423 
Q 872 500 872 619 
L 872 3763 
Q 872 3869 831 3950 
Q 791 4031 672 4081 
Q 597 4113 450 4145 
Q 303 4178 197 4191 
L 197 4434 
L 2656 4434 
L 2656 4191 
Q 2563 4181 2422 4164 
Q 2281 4147 2184 4116 
Q 2063 4075 2022 3989 
Q 1981 3903 1981 3794 
L 1981 653 
Q 1981 541 2023 461 
Q 2066 381 2184 331 
Q 2250 303 2401 276 
Q 2553 250 2656 244 
L 2656 0 
z
" transform="scale(0.015625)"/>
      <path id="Georgia-Bold-47" d="M 5153 1803 
Q 5056 1794 4981 1781 
Q 4906 1769 4794 1731 
Q 4666 1691 4625 1597 
Q 4584 1503 4584 1400 
L 4584 884 
Q 4584 728 4587 633 
Q 4591 538 4597 397 
Q 4284 209 3673 43 
Q 3063 -122 2550 -122 
Q 2069 -122 1647 25 
Q 1225 172 906 466 
Q 588 756 405 1187 
Q 222 1619 222 2175 
Q 222 2694 394 3134 
Q 566 3575 891 3894 
Q 1209 4209 1667 4381 
Q 2125 4553 2681 4553 
Q 3059 4553 3381 4461 
Q 3703 4369 3913 4263 
L 4106 4434 
L 4378 4434 
L 4406 2816 
L 4131 2816 
Q 3894 3544 3562 3897 
Q 3231 4250 2725 4250 
Q 2125 4250 1798 3725 
Q 1472 3200 1472 2278 
Q 1472 1300 1792 747 
Q 2113 194 2700 194 
Q 2975 194 3189 276 
Q 3403 359 3522 469 
L 3522 1369 
Q 3522 1481 3481 1557 
Q 3441 1634 3319 1691 
Q 3225 1734 3084 1762 
Q 2944 1791 2850 1803 
L 2850 2047 
L 5153 2047 
L 5153 1803 
z
" transform="scale(0.015625)"/>
      <path id="Georgia-Bold-4c" d="M 4388 1422 
L 4300 0 
L 216 0 
L 216 244 
Q 325 253 472 273 
Q 619 294 666 313 
Q 778 356 822 434 
Q 866 513 866 634 
L 866 3763 
Q 866 3875 831 3948 
Q 797 4022 666 4081 
Q 569 4125 433 4151 
Q 297 4178 216 4191 
L 216 4434 
L 2650 4434 
L 2650 4191 
Q 2550 4181 2414 4164 
Q 2278 4147 2178 4116 
Q 2056 4075 2015 3989 
Q 1975 3903 1975 3794 
L 1975 878 
Q 1975 672 2003 553 
Q 2031 434 2113 378 
Q 2194 319 2339 301 
Q 2484 284 2741 284 
Q 2991 284 3227 314 
Q 3463 344 3566 444 
Q 3725 603 3892 892 
Q 4059 1181 4159 1422 
L 4388 1422 
z
" transform="scale(0.015625)"/>
      <path id="Georgia-Bold-70" d="M 3988 1522 
Q 3988 863 3547 391 
Q 3106 -81 2431 -81 
Q 2131 -81 1943 -20 
Q 1756 41 1634 128 
L 1609 128 
L 1609 -750 
Q 1609 -859 1657 -940 
Q 1706 -1022 1794 -1059 
Q 1878 -1094 2033 -1122 
Q 2188 -1150 2291 -1156 
L 2291 -1388 
L 34 -1388 
L 34 -1156 
Q 113 -1150 231 -1133 
Q 350 -1116 409 -1097 
Q 509 -1063 545 -980 
Q 581 -897 581 -791 
L 581 2406 
Q 572 2509 533 2587 
Q 494 2666 409 2725 
Q 347 2766 244 2792 
Q 141 2819 41 2828 
L 41 3056 
L 1563 3138 
L 1609 3097 
L 1609 2750 
L 1634 2744 
Q 1841 2953 2092 3068 
Q 2344 3184 2591 3184 
Q 3238 3184 3613 2726 
Q 3988 2269 3988 1522 
z
M 2866 1509 
Q 2866 1744 2831 1958 
Q 2797 2172 2709 2341 
Q 2625 2509 2486 2609 
Q 2347 2709 2147 2709 
Q 1944 2709 1822 2639 
Q 1700 2569 1609 2456 
L 1609 684 
Q 1628 622 1681 523 
Q 1734 425 1788 366 
Q 1866 281 1966 240 
Q 2066 200 2184 200 
Q 2494 200 2680 533 
Q 2866 866 2866 1509 
z
" transform="scale(0.015625)"/>
      <path id="Georgia-Bold-61" d="M 3753 66 
Q 3616 6 3428 -44 
Q 3241 -94 3031 -94 
Q 2647 -94 2465 20 
Q 2284 134 2219 347 
L 2200 347 
Q 2094 241 1995 166 
Q 1897 91 1784 38 
Q 1638 -31 1502 -64 
Q 1366 -97 1122 -97 
Q 759 -97 503 117 
Q 247 331 247 684 
Q 247 888 303 1030 
Q 359 1172 463 1281 
Q 556 1381 679 1447 
Q 803 1513 950 1569 
Q 1231 1672 1625 1783 
Q 2019 1894 2200 1981 
L 2200 2281 
Q 2200 2359 2187 2487 
Q 2175 2616 2134 2703 
Q 2091 2803 1997 2872 
Q 1903 2941 1750 2941 
Q 1613 2941 1520 2902 
Q 1428 2863 1372 2822 
Q 1381 2759 1425 2631 
Q 1469 2503 1469 2384 
Q 1469 2331 1441 2251 
Q 1413 2172 1359 2125 
Q 1288 2063 1198 2028 
Q 1109 1994 925 1994 
Q 663 1994 528 2120 
Q 394 2247 394 2450 
Q 394 2625 533 2764 
Q 672 2903 872 2994 
Q 1069 3088 1325 3139 
Q 1581 3191 1800 3191 
Q 2103 3191 2356 3155 
Q 2609 3119 2813 3006 
Q 3006 2897 3120 2689 
Q 3234 2481 3234 2147 
Q 3234 1794 3220 1309 
Q 3206 825 3206 672 
Q 3206 531 3248 450 
Q 3291 369 3378 328 
Q 3431 303 3545 298 
Q 3659 294 3753 294 
L 3753 66 
z
M 2200 1694 
Q 2025 1634 1853 1557 
Q 1681 1481 1572 1397 
Q 1456 1309 1390 1173 
Q 1325 1038 1325 853 
Q 1325 609 1436 500 
Q 1547 391 1709 391 
Q 1881 391 1992 461 
Q 2103 531 2188 634 
L 2200 1694 
z
" transform="scale(0.015625)"/>
      <path id="Georgia-Bold-63" d="M 1966 -100 
Q 1531 -100 1198 26 
Q 866 153 650 372 
Q 434 594 328 897 
Q 222 1200 222 1556 
Q 222 1881 351 2175 
Q 481 2469 703 2691 
Q 931 2919 1270 3055 
Q 1609 3191 2019 3191 
Q 2594 3191 2928 2973 
Q 3263 2756 3263 2388 
Q 3263 2163 3144 2025 
Q 3025 1888 2734 1888 
Q 2500 1888 2342 2000 
Q 2184 2113 2184 2294 
Q 2184 2447 2234 2597 
Q 2284 2747 2294 2825 
Q 2259 2881 2206 2911 
Q 2153 2941 2041 2941 
Q 1900 2941 1784 2875 
Q 1669 2809 1569 2644 
Q 1472 2488 1414 2225 
Q 1356 1963 1356 1594 
Q 1356 1038 1617 697 
Q 1878 356 2241 356 
Q 2588 356 2792 511 
Q 2997 666 3156 950 
L 3391 788 
Q 3294 597 3159 439 
Q 3025 281 2838 159 
Q 2641 31 2437 -34 
Q 2234 -100 1966 -100 
z
" transform="scale(0.015625)"/>
      <path id="Georgia-Bold-6d" d="M 6391 0 
L 4528 0 
L 4528 228 
Q 4597 238 4672 244 
Q 4747 250 4797 275 
Q 4866 306 4884 379 
Q 4903 453 4903 569 
L 4903 2028 
Q 4903 2350 4789 2511 
Q 4675 2672 4463 2672 
Q 4328 2672 4223 2630 
Q 4119 2588 4031 2525 
Q 3941 2459 3891 2393 
Q 3841 2328 3806 2281 
L 3806 603 
Q 3806 491 3832 420 
Q 3859 350 3931 309 
Q 3981 281 4045 259 
Q 4109 238 4181 228 
L 4181 0 
L 2397 0 
L 2397 228 
Q 2456 234 2540 243 
Q 2625 253 2666 275 
Q 2731 309 2751 375 
Q 2772 441 2772 569 
L 2772 2028 
Q 2772 2350 2658 2511 
Q 2544 2672 2331 2672 
Q 2197 2672 2092 2630 
Q 1988 2588 1900 2525 
Q 1809 2459 1759 2393 
Q 1709 2328 1675 2281 
L 1675 603 
Q 1675 494 1703 422 
Q 1731 350 1803 309 
Q 1853 281 1917 259 
Q 1981 238 2053 228 
L 2053 0 
L 181 0 
L 181 228 
Q 263 234 341 243 
Q 419 253 475 275 
Q 575 313 612 383 
Q 650 453 650 569 
L 650 2388 
Q 650 2488 597 2583 
Q 544 2678 469 2731 
Q 413 2769 327 2794 
Q 241 2819 138 2828 
L 138 3056 
L 1628 3138 
L 1675 3091 
L 1675 2650 
L 1688 2650 
Q 1775 2728 1895 2836 
Q 2016 2944 2122 3009 
Q 2238 3084 2419 3134 
Q 2600 3184 2816 3184 
Q 3172 3184 3411 3029 
Q 3650 2875 3750 2619 
L 3778 2619 
Q 3869 2703 4000 2817 
Q 4131 2931 4241 3000 
Q 4363 3078 4552 3131 
Q 4741 3184 4956 3184 
Q 5428 3184 5683 2906 
Q 5938 2628 5938 2116 
L 5938 597 
Q 5938 481 5972 411 
Q 6006 341 6097 303 
Q 6147 281 6220 259 
Q 6294 238 6391 228 
L 6391 0 
z
" transform="scale(0.015625)"/>
      <path id="Georgia-Bold-74" d="M 2506 144 
Q 2306 56 2078 -14 
Q 1850 -84 1522 -84 
Q 1034 -84 798 153 
Q 563 391 563 831 
L 563 2750 
L 0 2750 
L 0 3088 
L 575 3088 
L 575 4034 
L 1591 4034 
L 1591 3088 
L 2466 3088 
L 2466 2750 
L 1597 2750 
L 1597 1038 
Q 1597 672 1698 519 
Q 1800 366 2063 366 
Q 2147 366 2297 378 
Q 2447 391 2506 406 
L 2506 144 
z
" transform="scale(0.015625)"/>
      <path id="Georgia-Bold-2d" d="M 2159 1359 
L 266 1359 
L 266 2050 
L 2159 2050 
L 2159 1359 
z
" transform="scale(0.015625)"/>
     </defs>
     <use xlink:href="#Georgia-Bold-49"/>
     <use xlink:href="#Georgia-Bold-47" transform="translate(44.580078 0)"/>
     <use xlink:href="#Georgia-Bold-4c" transform="translate(125.292969 0)"/>
     <use xlink:href="#Georgia-Bold-20" transform="translate(193.847656 0)"/>
     <use xlink:href="#Georgia-Bold-70" transform="translate(219.238281 0)"/>
     <use xlink:href="#Georgia-Bold-6c" transform="translate(285.009766 0)"/>
     <use xlink:href="#Georgia-Bold-61" transform="translate(319.433594 0)"/>
     <use xlink:href="#Georgia-Bold-63" transform="translate(379.003906 0)"/>
     <use xlink:href="#Georgia-Bold-65" transform="translate(432.128906 0)"/>
     <use xlink:href="#Georgia-Bold-6d" transform="translate(489.306641 0)"/>
     <use xlink:href="#Georgia-Bold-65" transform="translate(590.869141 0)"/>
     <use xlink:href="#Georgia-Bold-6e" transform="translate(648.046875 0)"/>
     <use xlink:href="#Georgia-Bold-74" transform="translate(717.041016 0)"/>
     <use xlink:href="#Georgia-Bold-20" transform="translate(756.787109 0)"/>
     <use xlink:href="#Georgia-Bold-6f" transform="translate(782.177734 0)"/>
     <use xlink:href="#Georgia-Bold-6e" transform="translate(845.751953 0)"/>
     <use xlink:href="#Georgia-Bold-20" transform="translate(914.746094 0)"/>
     <use xlink:href="#Georgia-Bold-41" transform="translate(940.136719 0)"/>
     <use xlink:href="#Georgia-Bold-44" transform="translate(1015.966797 0)"/>
     <use xlink:href="#Georgia-Bold-41" transform="translate(1099.365234 0)"/>
     <use xlink:href="#Georgia-Bold-54" transform="translate(1175.195312 0)"/>
     <use xlink:href="#Georgia-Bold-20" transform="translate(1243.603516 0)"/>
     <use xlink:href="#Georgia-Bold-28" transform="translate(1268.994141 0)"/>
     <use xlink:href="#Georgia-Bold-52" transform="translate(1313.671875 0)"/>
     <use xlink:href="#Georgia-Bold-29" transform="translate(1393.408203 0)"/>
     <use xlink:href="#Georgia-Bold-20" transform="translate(1438.085938 0)"/>
     <use xlink:href="#Georgia-Bold-28" transform="translate(1463.476562 0)"/>
     <use xlink:href="#Georgia-Bold-43" transform="translate(1508.154297 0)"/>
     <use xlink:href="#Georgia-Bold-54" transform="translate(1579.6875 0)"/>
     <use xlink:href="#Georgia-Bold-2d" transform="translate(1648.095703 0)"/>
     <use xlink:href="#Georgia-Bold-73" transform="translate(1685.986328 0)"/>
     <use xlink:href="#Georgia-Bold-69" transform="translate(1737.255859 0)"/>
     <use xlink:href="#Georgia-Bold-64" transform="translate(1772.607422 0)"/>
     <use xlink:href="#Georgia-Bold-65" transform="translate(1838.916016 0)"/>
     <use xlink:href="#Georgia-Bold-29" transform="translate(1896.09375 0)"/>
    </g>
   </g>
   <g id="PathCollection_1">
    <path d="M 179.046228 174.854901 
L 184.703083 169.198047 
L 179.046228 163.541193 
L 173.389374 169.198047 
z
" clip-path="url(#pef7ff0bc13)" style="fill: #00008b; fill-opacity: 0.95; stroke: #ffffff; stroke-opacity: 0.95; stroke-width: 1.2"/>
    <path d="M 149.435249 185.495274 
L 155.092103 179.83842 
L 149.435249 174.181566 
L 143.778395 179.83842 
z
" clip-path="url(#pef7ff0bc13)" style="fill: #00008b; fill-opacity: 0.95; stroke: #ffffff; stroke-opacity: 0.95; stroke-width: 1.2"/>
    <path d="M 156.424891 255.215047 
L 162.081745 249.558193 
L 156.424891 243.901339 
L 150.768037 249.558193 
z
" clip-path="url(#pef7ff0bc13)" style="fill: #00008b; fill-opacity: 0.95; stroke: #ffffff; stroke-opacity: 0.95; stroke-width: 1.2"/>
   </g>
   <g id="PathCollection_2">
    <path d="M 369.630082 341.310024 
L 375.286936 335.65317 
L 369.630082 329.996315 
L 363.973228 335.65317 
z
" clip-path="url(#pef7ff0bc13)" style="fill: #8b0000; fill-opacity: 0.95; stroke: #ffffff; stroke-opacity: 0.95; stroke-width: 1.2"/>
    <path d="M 357.126975 233.821129 
L 362.783829 228.164275 
L 357.126975 222.50742 
L 351.470121 228.164275 
z
" clip-path="url(#pef7ff0bc13)" style="fill: #8b0000; fill-opacity: 0.95; stroke: #ffffff; stroke-opacity: 0.95; stroke-width: 1.2"/>
    <path d="M 362.307588 304.729031 
L 367.964442 299.072177 
L 362.307588 293.415323 
L 356.650734 299.072177 
z
" clip-path="url(#pef7ff0bc13)" style="fill: #8b0000; fill-opacity: 0.95; stroke: #ffffff; stroke-opacity: 0.95; stroke-width: 1.2"/>
    <path d="M 401.195975 186.952701 
L 406.85283 181.295847 
L 401.195975 175.638993 
L 395.539121 181.295847 
z
" clip-path="url(#pef7ff0bc13)" style="fill: #8b0000; fill-opacity: 0.95; stroke: #ffffff; stroke-opacity: 0.95; stroke-width: 1.2"/>
    <path d="M 397.364391 296.629033 
L 403.021245 290.972179 
L 397.364391 285.315324 
L 391.707536 290.972179 
z
" clip-path="url(#pef7ff0bc13)" style="fill: #8b0000; fill-opacity: 0.95; stroke: #ffffff; stroke-opacity: 0.95; stroke-width: 1.2"/>
    <path d="M 349.005522 376.167394 
L 354.662376 370.51054 
L 349.005522 364.853686 
L 343.348667 370.51054 
z
" clip-path="url(#pef7ff0bc13)" style="fill: #8b0000; fill-opacity: 0.95; stroke: #ffffff; stroke-opacity: 0.95; stroke-width: 1.2"/>
    <path d="M 401.363677 77.068047 
L 407.020531 71.411193 
L 401.363677 65.754338 
L 395.706823 71.411193 
z
" clip-path="url(#pef7ff0bc13)" style="fill: #8b0000; fill-opacity: 0.95; stroke: #ffffff; stroke-opacity: 0.95; stroke-width: 1.2"/>
    <path d="M 371.252605 275.35471 
L 376.90946 269.697856 
L 371.252605 264.041002 
L 365.595751 269.697856 
z
" clip-path="url(#pef7ff0bc13)" style="fill: #8b0000; fill-opacity: 0.95; stroke: #ffffff; stroke-opacity: 0.95; stroke-width: 1.2"/>
   </g>
   <g id="PathCollection_3">
    <defs>
     <path id="m28931d2872" d="M 0 5.656854 
L 5.656854 0 
L 0 -5.656854 
L -5.656854 0 
z
" style="stroke: #ffffff; stroke-opacity: 0.95; stroke-width: 1.2"/>
    </defs>
    <g clip-path="url(#pef7ff0bc13)">
     <use xlink:href="#m28931d2872" x="596.682083" y="291.748423" style="fill: #556b2f; fill-opacity: 0.95; stroke: #ffffff; stroke-opacity: 0.95; stroke-width: 1.2"/>
    </g>
   </g>
  </g>
 </g>
 <defs>
  <clipPath id="pef7ff0bc13">
   <rect x="50.72375" y="45.783125" width="655.15" height="340.190625"/>
  </clipPath>
 </defs>
</svg>
